<?xml version="1.0" encoding="utf-8"?>
<!-- Generator: Adobe Illustrator 21.1.0, SVG Export Plug-In . SVG Version: 6.00 Build 0)  -->
<svg version="1.1" id="Calque_1" xmlns="http://www.w3.org/2000/svg" xmlns:xlink="http://www.w3.org/1999/xlink" x="0px" y="0px"
	 viewBox="0 0 432 432" style="enable-background:new 0 0 432 432;" xml:space="preserve">
<style type="text/css">
	.st0{fill:#343434;}
	.st1{fill:#ADCA60;}
	.st2{fill:#6EABC7;}
	.st3{fill:#EC6350;}
	.st4{fill:#EF8E81;}
	.st5{fill:#1B1B1B;}
	.st6{fill:#D2CE75;}
	.st7{fill:#F3C559;}
	.st8{fill:#AE5237;}
	.st9{fill:#73543B;}
	.st10{fill:#020203;}
	.st11{fill:#E4E0DF;}
	.st12{fill:#C1BB63;}
	.st13{fill:#F6D9D3;}
	.st14{fill:#EFAA9C;}
	.st15{fill:#F2C559;}
	.st16{fill:#303D46;}
	.st17{fill:#5A676E;}
	.st18{fill:#E46459;}
	.st19{fill:#A1263C;}
	.st20{fill:#483B3E;}
	.st21{fill:#DE9F84;}
	.st22{fill:#8B936E;}
	.st23{fill:#9A8E7C;}
	.st24{fill:#7E8D66;}
	.st25{fill:#D3C0AF;}
	.st26{fill:#6C2C3D;}
	.st27{fill:#A4BED3;}
	.st28{fill:#9FB187;}
	.st29{fill:#FAD5D2;}
	.st30{fill:#D7A2AE;}
	.st31{fill:#4E4D4D;}
	.st32{fill:#B84645;}
	.st33{fill:#756357;}
	.st34{fill:#9FAF88;}
	.st35{fill:#A08155;}
	.st36{fill:#EED0C6;}
	.st37{fill:#D4A77E;}
	.st38{fill:#CDC5BB;}
	.st39{fill:#9F4843;}
	.st40{fill:#D09F99;}
	.st41{fill-rule:evenodd;clip-rule:evenodd;fill:#A08155;}
	.st42{fill:#AE4759;}
	.st43{fill:#C9868F;}
	.st44{fill:#7F8D62;}
	.st45{fill:#D27F8E;}
	.st46{fill:#C69390;}
	.st47{fill:#9A9999;}
	.st48{fill:#B68368;}
	.st49{fill:#6D1F1F;}
	.st50{fill:#D2B6B4;}
	.st51{fill:#A7909E;}
	.st52{fill:#F8BD93;}
	.st53{fill:#397D59;}
	.st54{fill:#C4CEB3;}
	.st55{fill:#93A477;}
	.st56{fill:#D18B2E;}
	.st57{fill:#3C3C3B;}
	.st58{fill:#575756;}
	.st59{fill:#E6007E;}
	.st60{fill:none;}
	.st61{fill:#F9B233;}
	.st62{fill:#85CBCA;}
	.st63{fill:#E99F2B;}
	.st64{fill-rule:evenodd;clip-rule:evenodd;fill:#F9B233;}
	.st65{fill:#D60B52;}
	.st66{fill:#F4DCB5;}
	.st67{fill:#E58096;}
	.st68{fill:#E94865;}
	.st69{fill:#C21F4A;}
	.st70{fill:#C6C6C6;}
	.st71{fill:#DAA8CE;}
	.st72{fill:#F59F61;}
	.st73{fill:#E9E4AC;}
	.st74{fill:#E8375E;}
	.st75{fill:#833B12;}
	.st76{fill:#BB5D1C;}
	.st77{fill:#D17A3F;}
	.st78{fill:#DE184E;}
	.st79{fill:#D98892;}
	.st80{fill:#45553F;}
	.st81{fill:#517861;}
	.st82{fill:#A63070;}
	.st83{fill:#932065;}
	.st84{fill:#598967;}
	.st85{fill:#679275;}
	.st86{fill:#9A9A9A;}
	.st87{fill:#D8A49D;}
	.st88{fill:#D48A57;}
	.st89{fill:#E8BB98;}
	.st90{fill:#BA6F68;}
	.st91{fill:#924642;}
	.st92{fill:#E8C5AF;}
	.st93{fill:#D1906C;}
	.st94{fill:#C47C5C;}
	.st95{fill:#A2AD74;}
	.st96{fill:#F4EBD8;}
	.st97{fill:#C8A464;}
	.st98{fill:#F4A3A3;}
	.st99{fill:#F4CA71;}
	.st100{fill:#18223C;}
	.st101{fill:#E5B642;}
	.st102{fill:#224422;}
	.st103{fill:#245727;}
	.st104{fill:#386C38;}
	.st105{fill:#C54923;}
	.st106{fill:#264239;}
	.st107{fill:#C1292E;}
	.st108{fill:#D39812;}
	.st109{fill:#A67D52;}
	.st110{fill:#715640;}
	.st111{fill:#AB4B58;}
	.st112{fill:#67482E;}
	.st113{fill:#E7E6E6;}
	.st114{fill:#3C5259;}
	.st115{fill:#544842;}
	.st116{fill:#7DAD91;}
	.st117{fill:#5D9373;}
	.st118{fill-rule:evenodd;clip-rule:evenodd;fill:#C57B39;}
	.st119{fill:#C57B39;}
	.st120{fill:#B4DEF0;}
	.st121{fill:#923951;}
</style>
<g>
	<g>
		<path class="st65" d="M239,149c-1.1-3.9-1.9-9.8-9.2-10.7c-11-1.2-13,13.5-10.9,25.4c2.8,15.4,6.8,26.6,6.8,26.6s1.6,4.1,2.9,2.7
			c4.6-4.8,2.6-4.6,14.3-13C264,164.6,261.9,133.4,239,149z"/>
		<path class="st65" d="M206.2,114.3c-4-4.5-8.6-1.5-12.6,3c-8.6-15.8-25.4-3.9-11.1,27.3c3.1,6.7,6.4,13.3,11.2,19
			c7.7,8.9,6.1-2.6,9.7-10.8C207.4,143.6,216.5,125.6,206.2,114.3z"/>
		<path class="st65" d="M236.4,114.8c3.9-2.5,5.5-3.2,8.5-5c7.4-4.6,14.5-14.3,7.7-20.9c-4.8-4.6-9.5-1.4-14.3,2.1
			c-10.3-12.7-22,5.9-10.2,24.7C231.1,120.6,233.2,116.8,236.4,114.8z"/>
	</g>
	<g>
		<path class="st66" d="M302.1,191.7c6.3,0,12.2-0.6,16.2-6.1c2.2,1.4,4.5,1.1,6.7,1c4.3-0.3,8.4,0.2,12.4,1.9
			c1.4,0.6,2.8,1.1,3.6,2.7c-1.1,1.9-3.1,2.5-5,3.1c-0.8,0.3-1.8,0.3-2.7,0.5c-1.5,0.3-2.5,1.3-2.6,2.5c-0.1,1.1,0.7,2,2.2,2.5
			c1.7,0.6,3.4,1.1,5.1,1.8c1.2,0.4,2.4,0.9,3.5,1.5c1.5,0.8,2.8,2,3.7,3.5c0.9,1.7,0.7,2.5-1.2,3c-2.6,0.8-5.2,0.8-7.8,0.3
			c-2.4-0.5-4.8-1-7.3-1.6c-0.6-0.1-1.2-0.3-1.8-0.3c-0.9,0-1.8,0.3-2.3,1.2c-0.5,0.9-0.4,1.8,0.2,2.5c0.6,0.8,1.4,1.5,2.1,2.4
			c1.5,2,3.3,4,4.5,6.2c1.5,2.6,0.8,3.6-2.2,3.3c-1.4-0.1-2.8-0.6-4.1-1.1c-2.3-0.9-4.4-2.4-6.1-4.2c-5.1-5.5-10.1-11.1-14.1-17.6
			C303.7,198.1,303,195.1,302.1,191.7z"/>
		<g>
			<path class="st65" d="M302.8,186.9c-0.4-2.1-0.8-3.8-1.2-5.7c3-3,6.9-4.8,11.3-5.6c3.1-0.6,4.1,0.5,3.3,3.6
				c-0.9,3.6-3,6.4-6.9,7.3C307.2,186.8,305,187.3,302.8,186.9z"/>
			<path class="st65" d="M294.7,190.1c0.5,1,0.8,1.6,1.1,2.3c0.7,1.5,1.3,3,2,4.5c0.5,1.1,1.4,2.1,1,3.6c-0.6,2.2-1.1,4.4-2.6,6.2
				c-0.8,1-1.9,1-2.6-0.2c-0.6-1.1-1-2.4-1.1-3.6c-0.1-4,0.5-7.9,1.5-11.8C294.1,190.8,294.3,190.6,294.7,190.1z"/>
			<path class="st65" d="M289.6,187.4c-2.8,3.3-5.5,5.7-9.5,5.6c-1.1,0-2.3-0.4-3.4-0.9c-1.3-0.6-1.4-1.4-0.5-2.5
				c0.4-0.5,0.8-0.9,1.3-1.2C281.2,186.3,285.1,186.4,289.6,187.4z"/>
			<path class="st65" d="M296,178.2c-1.6,0.6-2.9,1.1-4.3,1.6c-1.6-2.7-2.2-5.7-2.5-8.9c-0.1-1,0.3-1.8,1.3-2.2
				c1-0.4,2.1-0.2,2.9,0.7c0.4,0.5,0.8,1.1,1.1,1.7C295.3,173.4,295.7,175.7,296,178.2z"/>
			<path class="st65" d="M297.7,185.8c-1.6,0.4-2.9,0.3-3.8-1.2c0.7-0.8,1.4-1.8,2.6-1.3C297.4,183.7,297.9,184.5,297.7,185.8z"/>
		</g>
		<path d="M310.2,267.6c5.4,5.8,4.2,12-5,13.6c1.6,2.6,3,5.3,1,8.3c-1.8,2.7-4.5,3.5-7.8,3.4c0.3,0.6,0.4,1.1,0.7,1.5
			c2.5,4.2-1.4,8.6-5.8,8.1c-3.6-0.4-7.2-1.3-10.1-3.4c-11-7.9-18.2-18.2-19.8-32c-0.8-6.4-0.2-12.6,2.4-18.6c1.5-3.5,3.5-6.7,6.6-9
			c3.4-2.5,7.2-3.2,11.5-2.7c3.9,0.4,6.9,2.2,9.9,4.5c4.6,3.6,8.5,7.9,12.2,12.4c2.1,2.5,3.4,5.5,4.2,8.7
			C310.6,264.1,310.2,265.8,310.2,267.6z M295.3,297.9c-0.4-1-0.5-1.5-0.8-2c-0.8-1.3-1.7-2.5-2.6-3.7c-0.7-1-0.9-2.1-0.3-3.2
			c0.7-1.2,1.8-1.5,3.1-1.4c1.1,0.1,2.2,0.4,3.3,0.5c0.7,0.1,1.5,0.2,2.2,0c2.1-0.4,2.6-1.7,1.4-3.5c-1-1.4-2.1-2.7-3.2-4.1
			c-0.8-1-1.2-2.1-0.5-3.3c0.7-1.2,1.8-1.5,3.1-1.4c0.6,0,1.2,0.2,1.8,0.2c1.1,0,2.3,0.1,3.4,0c2.3-0.4,2.9-1.8,1.5-3.7
			c-0.7-1-1.7-1.9-2.5-2.9c-1.1-1.3-1.3-2.5-0.3-3.9c0.6-0.9,0.7-1.6,0.3-2.5c-1-2.2-1.8-4.5-3.3-6.4c-3.6-4.5-7.5-8.9-12.3-12.2
			c-6.6-4.6-14.3-4.3-18.7,3.8c-0.3,0.6-0.6,1.2-0.9,1.8c-3.4,7.7-3.1,15.5-0.8,23.4c2.3,7.8,7,13.9,12.9,19.2
			c2.6,2.4,5.6,4,9.1,4.8C292.6,297.8,293.7,297.8,295.3,297.9z"/>
		<g>
			<path d="M377.9,287.2c-0.6-3.2-2.2-5.7-4.3-8c-2.3-2.5-5.2-4.4-8.3-6c1-0.4,1.9-0.7,2.6-1.2c1.7-1.1,3.5-2.1,4.9-3.5
				c5.9-5.9,4.1-15.1-3.5-18.5c-3.6-1.6-7.5-1.9-11.3-1.3c-8.8,1.4-17.2,4.2-25.2,8.1c-0.6,0.3-1.2,0.5-2,0.9c0-1.1,0.1-1.9,0.1-2.7
				c0.1-2,0.3-4.1,0.3-6.1c0.1-5.9-0.7-11.7-1.5-17.5c-0.1-0.9-0.2-1.7-0.2-2.6c1.4-0.2,2.6-0.3,3.8-0.7c3.1-0.8,4.8-3.4,4-6.5
				c-0.4-1.9-1.4-3.6-2.2-5.4c-0.2-0.6-0.6-1.1-1.1-1.8c1.2,0.1,2.1,0.2,3,0.4c3,0.6,5.9,0.2,8.7-0.6c5-1.5,6.5-5.5,3.8-10.1
				c-1.5-2.5-3.6-4.2-6.1-5.5c-0.6-0.3-1.3-0.7-2.1-1.1c1-0.8,1.8-1.3,2.6-2.1c2.6-2.5,2.8-5.6,0.3-8.2c-1.2-1.2-2.7-2.2-4.2-2.9
				c-5-2.2-10.3-3-15.9-2.5c-1.1,0.1-2.2-0.1-3.2-0.2c0.2-1.9,0.5-3.4,0.4-5c-0.1-3.2-2.1-5.6-5.4-6c-1.7-0.2-3.6,0-5.3,0.4
				c-3.6,0.8-6.8,2.3-9.9,4.5c-0.2-1-0.4-1.8-0.6-2.6c-0.5-2.2-1.3-4.3-2.6-6.2c-2.1-2.9-5.5-3.9-8.8-2.7c-2.9,1.2-4.7,4.5-4,8
				c0.6,2.9,1.3,5.8,2.1,9c-0.8,0-1.6,0-2.4,0c-1.4,0-2.7,0-4.1,0.2c-6.4,0.9-12.4,2.9-18.3,5.4c-7.3,3-13,8-17.4,14.5
				c-4.7,6.7-8.2,14-10.5,21.9c-0.7,2.2-1.9,3.5-3.7,4.4c-1.1,0.6-2.3,1.1-3.5,1.5c-2.3,0.8-4.7,1.5-7.1,2.3c-1.5,0.5-3.1,1-3.3,2.9
				c-0.1,2,1.4,2.9,2.9,3.6c3.3,1.6,6.6,3.2,10.7,3c-1.3,9.1-1.9,17.8-1.7,26.5c0.2,5.9,0.8,11.7,2.3,17.4c2,7.8,5.3,14.9,11.3,20.4
				c4,3.7,8.4,6.6,13.4,8.7c0.9,0.4,1.7,0.8,2.8,1.2c-1.6,4.4-3.1,8.5-4.6,12.7c-0.4,1-1,1.6-1.9,2.1c-3.2,1.6-6.4,3.3-9.6,5.1
				c-0.9,0.5-1.8,1.1-2.5,1.8c-0.7,0.7-0.9,1.7-0.3,2.5c0.5,0.6,1.2,1.1,2,1.2c0.5,0.1,1.1-0.3,1.7-0.6c2.4-1.3,4.8-2.6,7.2-3.8
				c0.4-0.2,0.9-0.3,1.5-0.5c0,1,0,1.7,0,2.5c0,1.7-0.2,3.3-0.1,5c0.1,1.5,1,2.3,2.3,2.3c1.3,0,2.1-0.8,2.3-2.3
				c0.1-0.6,0.1-1.2,0.1-1.8c0.1-2.1,0.3-4.3,0.5-6.9c1,1.2,1.6,2,2.3,2.7c0.6,0.7,1.3,1.5,2,2.1c0.9,0.7,1.9,0.6,2.7-0.2
				c0.8-0.7,1.1-1.6,0.6-2.6c-0.3-0.6-0.7-1.1-1.1-1.7c-1.6-2-3.2-4-4.7-5.9c1.5-4.3,2.9-8.3,4.4-12.5c7.7,1.9,15.3,1.4,23.1,0.9
				c0.3,2,0.4,3.9,0.8,5.8c0.2,1.3-0.2,2.2-1.1,3.2c-2.1,2.5-4.1,5-6.1,7.5c-0.5,0.7-1,1.5-1.3,2.3c-0.4,1.1,0.1,2.1,1.1,2.7
				c1,0.6,1.9,0.3,2.7-0.4c0.4-0.4,0.7-1,1.1-1.4c1.3-1.7,2.5-3.5,4.2-5.2c0.8,2,1.4,3.8,2.1,5.5c0.4,1,0.9,2.1,1.5,3
				c0.6,0.9,1.9,1.1,2.8,0.7c1-0.5,1.4-1.4,1.2-2.4c-0.1-0.7-0.4-1.3-0.7-1.9c-0.7-1.9-1.4-3.7-2.3-6c2.1,1.1,3.7,2,5.3,2.8
				c0.6,0.3,1.2,0.6,1.8,0.8c1.3,0.4,2.4,0,2.9-1c0.5-1.1,0.2-2.3-1-3.1c-0.6-0.4-1.2-0.6-1.8-1c-2.2-1.3-4.4-2.6-6.6-4
				c-0.4-0.3-0.9-0.7-1-1.1c-0.4-2.5-0.9-5-0.8-7.7c7.5-1.2,13.8-4.6,19.2-9.6c5.4-5,9.8-10.8,13-17.7c0.6,0.7,1.2,1.2,1.6,1.8
				c4.1,4.9,8.1,9.9,12.2,14.8c2.6,3.2,5.6,5.9,9.1,8c1.8,1.1,3.9,2,5.9,2.6c5.9,1.6,10.2-1.4,10.7-7.5c0.2-1.8,0-3.8-0.3-5.6
				c-0.5-2.6-1.4-5.1-2.2-7.6c-0.2-0.8-0.4-1.5-0.7-2.6c1.9,0.6,3.3,1.2,4.8,1.6c3.5,1,7,1.2,10.3-0.5
				C377.2,292.8,378.4,290.4,377.9,287.2z M230.7,236.7c-2.1-0.4-4-0.8-5.9-1.2c0-0.2,0-0.4,0-0.5c2.1-0.8,4.3-1.6,6.7-2.5
				C231.2,233.9,230.9,235.2,230.7,236.7z M318.4,185.7c2.2,1.4,4.5,1.1,6.7,1c4.3-0.3,8.4,0.2,12.4,1.9c1.4,0.6,2.8,1.1,3.6,2.7
				c-1.1,1.9-3.1,2.5-5,3.1c-0.8,0.3-1.8,0.3-2.7,0.5c-1.5,0.3-2.5,1.3-2.6,2.5c-0.1,1.1,0.7,2,2.2,2.5c1.7,0.6,3.4,1.1,5.1,1.8
				c1.2,0.4,2.4,0.9,3.5,1.5c1.5,0.8,2.8,2,3.7,3.5c0.9,1.7,0.7,2.5-1.2,3c-2.6,0.8-5.2,0.8-7.8,0.3c-2.4-0.5-4.8-1-7.3-1.6
				c-0.6-0.1-1.2-0.3-1.8-0.3c-0.9,0-1.8,0.3-2.3,1.2c-0.5,0.9-0.4,1.8,0.2,2.5c0.6,0.8,1.4,1.5,2.1,2.4c1.5,2,3.3,4,4.5,6.2
				c1.5,2.6,0.8,3.6-2.2,3.3c-1.4-0.1-2.8-0.6-4.1-1.1c-2.3-0.9-4.4-2.4-6.1-4.2c-5.1-5.5-10.1-11.1-14.1-17.6
				c-1.7-2.8-2.3-5.8-3.3-9.1C308.5,191.8,314.4,191.2,318.4,185.7z M312.9,175.5c3.1-0.6,4.1,0.5,3.3,3.6c-0.9,3.6-3,6.4-6.9,7.3
				c-2.2,0.5-4.4,1-6.5,0.5c-0.4-2.1-0.8-3.8-1.2-5.7C304.6,178.2,308.5,176.3,312.9,175.5z M298.8,200.4c-0.6,2.2-1.1,4.4-2.6,6.2
				c-0.8,1-1.9,1-2.6-0.2c-0.6-1.1-1-2.4-1.1-3.6c-0.1-4,0.5-7.9,1.5-11.8c0.1-0.2,0.2-0.4,0.6-0.9c0.5,1,0.8,1.6,1.1,2.3
				c0.7,1.5,1.3,3,2,4.5C298.3,198,299.1,199,298.8,200.4z M297.7,185.8c-1.6,0.4-2.9,0.3-3.8-1.2c0.7-0.8,1.4-1.8,2.6-1.3
				C297.4,183.7,297.9,184.5,297.7,185.8z M290.4,168.8c1-0.4,2.1-0.2,2.9,0.7c0.4,0.5,0.8,1.1,1.1,1.7c1,2.2,1.4,4.6,1.7,7
				c-1.6,0.6-2.9,1.1-4.3,1.6c-1.6-2.7-2.2-5.7-2.5-8.9C289.1,170,289.5,169.1,290.4,168.8z M276.2,189.6c0.4-0.5,0.8-0.9,1.3-1.2
				c3.7-2.1,7.7-2,12.1-1c-2.8,3.3-5.5,5.7-9.5,5.6c-1.1,0-2.3-0.4-3.4-0.9C275.4,191.5,275.3,190.7,276.2,189.6z M368.5,289.5
				c-5.3-0.5-10.2-2.5-15-4.6c-1.6-0.7-3.4-1.2-5-1.9c-1.2-0.5-2.4-1.2-3.6-1.8c-3.2-1.6-6.4-3.3-9.7-4.7c-1.7-0.7-3.6-1-5.5-1.3
				c-1.6-0.2-2.7,0.6-2.9,1.8c-0.2,1.3,0.7,2.5,2.4,2.7c4.2,0.6,7.9,2.4,11.5,4.4c3.8,2,7.5,4.2,10.8,7c1.4,1.2,2.6,2.6,3.2,4.3
				c1.1,3.3,2.2,6.6,3,9.9c0.3,1.5,0.1,3.2-0.2,4.7c-0.4,1.9-1.7,2.7-3.6,2.2c-1.9-0.5-3.9-1.2-5.6-2.3c-3.4-2-6.2-4.8-8.7-7.8
				c-4-4.9-8-9.8-12-14.7c-0.9-1.1-1.9-2.2-2.9-3.1c-1.7-1.6-3.9-1.2-5.1,0.8c-0.3,0.5-0.6,1.1-0.8,1.6c-2.3,5.3-5.6,9.9-9.5,14.2
				c-6,6.5-13.3,10.4-22.1,11.5c-4.8,0.6-9.6,1-14.4,0.8c-8.7-0.3-16.7-3-23.8-8.1c-0.4-0.3-0.8-0.7-1.2-1.1
				c3.9-1.7,3.9-1.7,6.8-6.1c0.2,0.1,0.5,0.1,0.8,0.2c3.8,1.8,8.3-0.6,9.9-3.3c1-1.7,1.6-3.6,2.1-5.4c0.5-1.7-0.5-3.1-1.9-3.3
				c-1.4-0.2-2.3,0.6-2.8,2.3c-0.2,0.9-0.4,1.9-0.8,2.8c-1.2,2.7-3.3,3.3-5.9,1.8c-2.7-1.5-4-1.1-5.4,1.7c-0.4,0.7-0.7,1.5-1.1,2.2
				c-1.3,2.3-3.7,3-6,1.6c-2-1.2-3.9-2.6-4.7-4.9c-0.7-1.8-1.5-3.6-2.3-5.4c-0.2-0.6-0.4-1.3-0.6-2.2c5.3,1.6,10,1.5,12.7-4.2
				c0.7,0.3,1.4,0.6,2.1,0.8c2.8,0.8,5.5,0.6,7.5-1.6c1.3-1.5,2.4-3.2,3.4-5c0.7-1.3,0.3-2.5-0.8-3.1c-1.1-0.6-2.3-0.4-3.2,0.8
				c-0.7,1-1.2,2.1-1.9,3c-1.5,2-3,2.2-5,0.6c-0.5-0.4-0.9-0.8-1.4-1.2c-1.8-1.3-3.3-0.9-4.2,1.1c-0.4,1-0.7,2-1.2,2.9
				c-0.6,1.5-1.8,2.3-3.4,2c-1.4-0.2-2.8-0.5-4.1-1.2c-1.7-0.9-2.8-2.4-3-4.5c-0.2-3.4-0.6-6.7-0.9-10.5c5.9,3.1,9.9,0.8,13.3-3.5
				c1.6,1.5,3.2,2.8,5.3,3.4c3.9,1,6.7-0.9,8.5-3.2c1-1.3,0.8-2.6-0.2-3.4c-1-0.8-2.1-0.7-3.3,0.3c-0.2,0.2-0.4,0.4-0.6,0.7
				c-1.6,1.5-3.4,1.7-5,0.2c-1-0.9-1.6-2.1-2.3-3.3c-0.6-1-1.3-1.8-2.6-1.9c-1.3,0-2,0.8-2.5,1.9c-0.6,1.2-1.2,2.5-2,3.5
				c-2.1,2.7-4.7,2.6-7.1,0.2c-1-1.1-1.3-2.2-1.3-3.6c0.7-12.2,2.4-24.3,6.4-35.9c2.3-6.7,5.6-13,9.8-18.7c2.1-2.8,4.6-5,7.4-7.2
				c4-3.2,8.7-4.9,13.4-6.7c0.3-0.1,0.5-0.1,1-0.2c0,0.4,0,0.7,0,1c-0.5,3.2,0.4,5.1,3.3,6.7c3.9,2.3,7.9,1.8,11.9,0.2
				c0.3-0.1,0.7-0.3,1-0.5c0.3-0.1,0.5-0.2,1.1-0.5c-0.1,1.1-0.2,1.9-0.3,2.8c-0.3,2.7-0.4,5.4,0.4,8.1c0.7,2.3,2,4.2,4.3,5.2
				c2.8,1.2,5.7,0.3,7.7-2.5c0.8-1.2,1.4-2.5,2-3.6c3.2,3.9,6.3,7.7,9.4,11.5c3.5,4.3,7.3,8.2,12.5,10.3c1,8.3,2.5,16.5,1.9,24.8
				c-0.2,2.6-0.5,5.2-0.7,7.9c-0.1,0.8-0.3,1.6-0.2,2.5c0,2.1,1.7,3,3.6,2.1c0.1-0.1,0.3-0.2,0.4-0.2c9.4-5.9,19.7-9.3,30.5-11
				c2.7-0.4,5.4,0.1,7.9,1.3c4.3,2,4.8,7.3,2.1,10.3c-0.9,1-2.1,2.1-3.3,2.6c-3.3,1.3-6.8,2.4-10.2,3.3c-1.1,0.3-2.4-0.2-3.5-0.4
				c-5-0.7-10-1.1-15.1-1c-1.8,0-3.6,0-5.4,0c-1.6,0-2.6,0.9-2.6,2.2c0,1.3,0.9,2.2,2.5,2.3c1,0.1,2.1,0.2,3.2,0.1
				c8.5-0.2,16.9,0.6,25.3,2.8c4.1,1.1,7.4,3.2,10.2,6.3c1.4,1.5,2.4,3.2,2.6,5.5C371.7,289.4,370.2,289.7,368.5,289.5z"/>
			<ellipse cx="269.5" cy="227.4" rx="3.9" ry="3.6"/>
		</g>
	</g>
	<g>
		<path d="M133.5,293.2c-7.2-0.2-11.3-5.2-6.8-12c-0.8-0.2-1.5-0.3-2.2-0.5c-0.9-0.3-1.9-0.6-2.7-1.1c-3.1-1.8-4.1-5.2-2.4-8.4
			c0.7-1.3,1.7-2.5,2.6-3.9c-0.9-2.5-0.2-5,0.8-7.5c2-5.3,6-9.1,9.8-13.1c2.7-2.9,5.7-5.6,9.2-7.6c6.5-3.7,15.5-3.4,20.8,3.4
			c5.2,6.6,6.9,14.2,6.4,22.5c-0.9,13.6-7.4,24.1-17.6,32.6c-3.6,3-7.7,4.5-12.3,5.1c-1.9,0.2-3.6-0.2-5-1.5
			c-1.8-1.6-2.3-3.7-1.4-5.9C132.8,294.5,133.2,293.9,133.5,293.2z M136.6,297.9c1.7-0.2,2.9-0.2,4-0.4c4.7-0.9,8.2-3.9,11.5-7.2
			c8.6-8.6,12.8-19,12-31.2c-0.3-4.9-1.9-9.4-4.9-13.4c-2-2.7-4.7-4.4-8.1-4.3c-3.3,0.1-6.3,0.9-9,3c-4.6,3.5-8.5,7.7-12.1,12.1
			c-1.5,1.9-2.3,4.3-3.4,6.5c-0.3,0.7-0.3,1.3,0.2,2.1c1.3,2,1.1,2.8-0.5,4.6c-0.9,1-1.8,2-2.5,3.2c-0.7,1.1-0.4,2,0.8,2.6
			c0.7,0.3,1.4,0.5,2.2,0.5c1.3,0,2.7-0.1,4.1-0.2c1.4-0.1,2.6,0.2,3.3,1.5c0.7,1.2,0.2,2.3-0.6,3.3c-1,1.2-1.9,2.3-2.8,3.5
			c-0.6,0.8-1.3,1.6-0.8,2.7c0.6,1.1,1.7,1.4,2.9,1.4c0.5,0,1-0.1,1.6-0.2c1-0.1,2.1-0.3,3.1-0.4c1.2-0.1,2.3,0.2,2.9,1.3
			c0.7,1.1,0.5,2.2-0.2,3.2c-0.7,1.1-1.5,2.1-2.2,3.2C137.5,296,137.2,296.7,136.6,297.9z"/>
		<g>
			<path d="M215.7,234.4c-0.1-1.5-1.1-2.2-2.4-2.6c-1.3-0.4-2.6-0.8-3.9-1.2c-3.1-1.1-6.3-1.9-9.1-3.9c-0.9-0.6-1.5-1.3-1.8-2.4
				c-2.5-8.7-6-14.4-7.2-17.5c12.3-1.7,17.4-0.8,17.6-8.3c0.3-14.4-5.4-9.6-30.8-9.6c-5.9-23.9-3-49.4-15.9-50.9
				c-17-2.1-38.6-0.2-49.7,2.7c-5.6,1.5-7.1,2-8.1,9.2c-1,6.9-1.2,13.8-0.9,20.7c1.3,28.1,6.8,18.5-14.6,23.1
				c-9.6,2.1-8.4,16.7-2.7,17.1c1.2,0.1,2.4,0.3,3.6,0.3c21.2,0.1,15.8-0.1,18.8,0.2c-1.7,4.5-5.3,11.3-6.8,21.6
				c-0.3,1.8-0.2,3.7-0.4,5.6c-0.5,5.1-0.9,10.2-0.4,15.3c0.1,1.3,0.2,2.5,0.2,4c-0.8-0.3-1.3-0.5-1.9-0.8c-5.4-2.6-11-4.8-16.9-6.3
				c-4.7-1.2-9.3-2.4-14.2-2c-3,0.3-5.7,1.2-8.2,2.9c-3.5,2.6-4.8,6.3-4.3,10.5c0.6,4.6,3.5,7.5,7.4,9.6c1,0.6,2.1,1,3.3,1.6
				c-0.7,0.4-1.3,0.7-1.9,1.1c-2.9,1.6-5.5,3.7-7.6,6.3c-1.6,2-2.7,4.1-3.2,6.7c-0.5,3.1,0.6,5.5,3.3,7c2.6,1.4,5.5,1.7,8.3,1.1
				c2.2-0.5,4.4-1.2,7-1.9c-0.2,0.9-0.4,1.7-0.7,2.4c-0.8,2.6-1.6,5.2-2.2,7.8c-0.6,2.7-0.6,5.5,0.3,8.2c1.2,3.2,3.7,4.9,7,5
				c3.1,0.1,5.9-1,8.5-2.6c3.7-2.3,6.9-5.1,9.7-8.4c4.1-4.9,8.1-9.9,12.2-14.8c0.5-0.6,1-1.1,1.6-1.7c0.3,0.6,0.6,1.1,0.8,1.5
				c3.1,6.2,7.3,11.6,12.4,16.2c4.8,4.4,10.3,7.6,16.7,9c0.7,0.2,1.4,0.4,2.4,0.6c-0.2,2.2-0.5,4.3-0.7,6.5
				c-0.1,1.1-0.5,1.8-1.4,2.4c-2.6,1.5-5.2,3-7.8,4.5c-1.5,0.9-2,2.2-1.4,3.4c0.6,1.1,1.9,1.5,3.4,0.9c1.6-0.7,3.2-1.7,4.8-2.5
				c0.5-0.2,1-0.4,1.9-0.8c-0.9,2.3-1.6,4.2-2.4,6.1c-0.2,0.5-0.4,1-0.5,1.5c-0.3,1.2,0.2,2.2,1.2,2.7c1,0.5,2.2,0.2,3-0.9
				c0.3-0.5,0.6-1,0.8-1.6c0.7-1.7,1.3-3.5,2-5.3c0.2-0.4,0.5-0.8,0.8-1.4c0.4,0.4,0.7,0.7,0.9,1c1.3,1.7,2.6,3.5,4,5.2
				c0.9,1.1,1.9,1.3,3,0.7c1.1-0.6,1.5-1.8,0.9-3.1c-0.4-0.9-1-1.7-1.6-2.5c-2-2.5-4-4.9-6-7.4c-0.4-0.4-0.8-1-0.8-1.5
				c0.2-2.4,0.5-4.7,0.7-7.1c7.9,0.5,15.5,1,23.2-0.9c1.5,4.3,2.9,8.4,4.4,12.5c-1.6,2-3.1,3.9-4.7,5.8c-0.4,0.5-0.8,1.1-1.1,1.7
				c-0.5,1-0.2,1.9,0.6,2.6c0.8,0.7,1.8,0.8,2.7,0.1c0.7-0.5,1.2-1.3,1.9-1.9c0.8-0.8,1.3-1.9,2.5-2.6c0,0.7,0.1,1.1,0.1,1.6
				c0.1,2.3,0.2,4.5,0.4,6.8c0.1,1.5,1.1,2.3,2.3,2.3c1.3,0,2.1-0.9,2.3-2.3c0.1-0.9,0-1.8,0-2.7c0-1.5,0-3.1,0-4.8
				c0.5,0.2,0.9,0.3,1.2,0.5c2.5,1.3,5,2.7,7.5,4.1c1.4,0.8,2.7,0.5,3.4-0.6c0.7-1,0.4-2.3-0.7-3.2c-0.8-0.6-1.6-1.1-2.5-1.5
				c-3-1.6-6-3.2-9-4.7c-1.1-0.5-1.8-1.3-2.2-2.4c-1.2-3.5-2.5-6.9-3.7-10.4c-0.2-0.7-0.4-1.4-0.7-2.1c1.3-0.6,2.4-1,3.5-1.5
				c11.4-5.2,19.4-13.5,23-25.7c1.9-6.5,2.9-13.2,3.1-20c0.3-8.9-0.3-17.7-1.6-26.8c0.5-0.1,0.8-0.2,1.1-0.2c3.9,0,7.2-1.9,10.6-3.6
				C215,236.8,215.8,235.8,215.7,234.4z M171.3,180.2c0.3,2,0.7,4.1,1.1,6.4c-25.4,2.9-39.6,4-45,4.1c-6.3,0-8.3,0.1-17.1,0.1
				c-0.1-1.4-0.6-4.6-0.8-6.1C130.1,182.7,150.5,180.7,171.3,180.2z M171.7,262c1.4,2.4,3.4,4,6.3,4.2c2.3,0.1,4.3-0.6,6.1-2
				c0.6-0.5,1.1-1,1.8-1.6c3.4,4.3,7.5,6.6,13,3.6c0,1.6,0.1,2.9,0,4.2c-0.1,2.2-0.5,4.3-0.6,6.5c-0.1,3.5-5.2,6.1-8.4,5.1
				c-0.7-0.2-1.4-1.1-1.9-1.8c-0.5-0.9-0.8-2-1.2-2.9c-0.9-2.1-2.5-2.5-4.3-1.1c-0.6,0.5-1.1,1-1.7,1.4c-1.7,1.1-2.9,0.9-4.2-0.6
				c-0.6-0.7-1.1-1.6-1.6-2.4c-0.4-0.6-0.7-1.2-1.2-1.6c-0.7-0.7-1.6-0.7-2.5-0.3c-0.9,0.5-1.3,1.3-1.2,2.3
				c0.5,4.5,6.2,8.7,10.5,7.8c0.9-0.2,1.7-0.6,2.7-1c1.3,2.1,2.7,4.1,5.3,4.8c2.5,0.7,4.9,0.1,7.6-0.5c-1,3.8-2.3,7.4-4.7,10.3
				c-1,1.2-2.8,2-4.3,2.6c-1.7,0.7-3.4-0.2-4.4-1.8c-0.5-0.9-0.9-1.9-1.4-2.8c-1.2-2.4-2.6-2.8-4.9-1.5c-3.1,1.8-5.3,1-6.5-2.4
				c-0.3-0.8-0.4-1.6-0.6-2.4c-0.4-1.5-1.3-2.1-2.6-2c-1.2,0.1-2,1.2-2.1,2.5c-0.2,4.5,3.8,9.4,8.2,10c1.5,0.2,3.1-0.3,4.9-0.5
				c1.2,2.7,3.2,5,6.8,5.8c-0.8,0.6-1.3,1.1-1.9,1.5c-5.8,4-12.2,6.5-19.2,7.4c-7.4,0.9-14.7,0.4-22-1c-7.6-1.4-13.8-5.5-18.9-11.1
				c-3.9-4.3-7.2-8.9-9.4-14.2c-0.2-0.4-0.4-0.8-0.6-1.2c-1.2-2.2-3.5-2.7-5.2-0.8c-3.2,3.5-6.2,7.1-9.3,10.8
				c-2,2.4-3.9,4.8-5.8,7.2c-2.4,2.9-5.1,5.6-8.4,7.5c-1.7,1-3.7,1.7-5.6,2.3c-1.9,0.5-3.2-0.3-3.7-2.3c-0.3-1.4-0.4-2.9-0.2-4.2
				c0.6-3.8,1.7-7.5,3.4-10.9c0.6-1.2,1.5-2.4,2.6-3.3c5.6-4.7,11.9-8.1,18.7-10.7c1-0.4,2.2-0.6,3.3-0.8c0.3-0.1,0.6,0,0.9-0.1
				c1.4-0.4,2.2-1.4,2-2.6c-0.2-1.2-1.2-2.1-2.6-2c-1.9,0.3-3.9,0.6-5.7,1.3c-2.7,1-5.4,2.3-8,3.7c-2.6,1.3-5.1,2.8-7.9,3.7
				c-3.3,1-6.4,2.5-9.6,3.9c-2.9,1.2-5.9,1.7-9,2c-1.1,0.1-2.3-0.4-3.8-0.7c0.3-1.1,0.4-2.1,0.8-2.9c2.5-4.6,6.3-7.7,11.4-8.9
				c4-1,8.1-1.9,12.1-2.3c4.4-0.5,8.9-0.5,13.3-0.7c1.4-0.1,2.7,0,4.1-0.2c1.3-0.1,2.1-1.1,2.1-2.2c0-1.2-0.9-2.3-2.3-2.3
				c-4.5,0-9,0-13.5,0.2c-3.1,0.2-6.3,0.8-9.4,1.1c-0.6,0.1-1.2,0.1-1.8,0c-2.5-0.7-5.1-1.3-7.5-2.3c-1.8-0.7-3.6-1.7-5-2.9
				c-3.6-3.1-3.1-9.2,2-11.2c3-1.2,6-1.3,9.1-0.7c9.7,1.8,18.9,4.8,27.4,9.8c0.6,0.3,1.1,0.8,1.7,1.1c2,1.1,3.7,0,3.7-2.2
				c0-1.6-0.3-3.1-0.5-4.7c-1-8.1-0.3-16.2,0.7-24.3c0.6-4.8,4.8-22.7,9.5-23c10.4-0.6,20.7-1.5,31.1-1.9
				c11.2-0.5,22.4-0.6,33.6-0.9c1.5,0,3-0.2,4.6-0.3c2,3,3.5,6.3,5,9.6c3.3,7.3,5.1,14.9,6.3,22.8c0.9,6,1.4,12.1,1.9,18.2
				c0.2,1.8-1.3,3.9-3.1,4.7c-1.7,0.8-3.6,0.3-5-1.4c-0.8-1-1.4-2.3-2-3.5c-0.6-1.1-1.1-2.2-2.6-2.2c-1.5,0-2.2,1-2.9,2.2
				c-0.6,1.1-1.4,2.2-2.3,3c-1.5,1.4-3.3,1.2-4.8-0.2c-0.4-0.4-0.8-0.9-1.3-1.2c-0.9-0.6-1.9-0.5-2.7,0.3
				C171.4,260.1,171.1,261,171.7,262z M207.2,235.5c-1.9,0.4-3.8,0.8-5.9,1.2c-0.3-1.4-0.5-2.7-0.8-4.3c2.5,0.9,4.7,1.6,6.8,2.5
				C207.3,235.1,207.3,235.3,207.2,235.5z"/>
			<ellipse cx="170.2" cy="227.4" rx="3.9" ry="3.6"/>
		</g>
		<path class="st66" d="M109.5,184.6c0.2,1.6,0.6,4.7,0.8,6.1c8.8,0,10.9-0.1,17.1-0.1c5.3,0,19.6-1.2,45-4.1
			c-0.4-2.3-0.7-4.4-1.1-6.4C150.5,180.7,130.1,182.7,109.5,184.6z"/>
	</g>
</g>
</svg>
