<?xml version="1.0"?><svg width="888.95264" height="660.70398" xmlns="http://www.w3.org/2000/svg">
 <metadata id="metadata3953">image/svg+xml</metadata>
 <g>
  <title>Layer 1</title>
  <path d="m48.874161,599.424622c0.034088,-3.531494 0.0466,-7.06488 0,-10.659363c-0.035931,-2.523132 -0.12492,-5.079407 -0.20565,-7.629639c-0.495659,-15.66217 -1.86034,-30.713013 -4.195431,-44.488586c-2.335098,-13.775635 -5.619801,-26.285706 -9.62479,-37.195374c-3.656399,-10.126465 -7.898331,-18.872009 -12.174959,-26.087158c-4.276649,-7.215271 -8.603771,-12.885559 -12.421751,-17.335388c-8.630639,-7.852783 -13.573979,-13.237823 -13.120979,-14.754791c0.47921,-1.497681 6.38474,1.071381 16.61717,7.068909c4.697069,3.744019 10.06477,9.115143 15.46549,16.381622c5.400711,7.266479 10.80481,16.479553 15.506611,27.489685c4.948917,11.733765 9.084518,25.339722 12.010429,40.280945c2.925896,14.941345 4.660637,31.192017 5.141449,47.910767c0.078323,2.72229 0.107933,5.451904 0.123329,8.134705c0.025658,3.677429 -0.014481,7.280457 -0.08226,10.883667l-13.038719,0l0.000061,0z" id="path4092" fill-rule="evenodd" fill="#00892c"/>
  <path d="m91.768448,599.424622c0.278648,-3.498596 0.589172,-7.002197 0.822594,-10.54657c1.383926,-21.013123 1.823242,-41.411438 1.425819,-60.66095c-0.46035,-22.5354 -2.088089,-43.526001 -4.277458,-62.231812c-2.189331,-18.705811 -4.919899,-35.089172 -7.458099,-48.693298c-2.538185,-13.604095 -4.838806,-24.436066 -6.25164,-32.013519c-1.412865,-7.577362 -1.946274,-11.915649 -1.041946,-12.491272c0.90432,-0.5755 3.15184,2.665344 6.25164,9.424591c3.099846,6.759247 7.075386,17.058716 11.132339,30.517395c4.056946,13.458984 8.156792,30.114471 11.516182,49.441406c3.359398,19.326904 5.9394,41.314636 6.964561,65.074097c0.870193,20.25354 0.677208,41.754456 -0.767738,63.80249c-0.184654,2.817749 -0.382179,5.590454 -0.603241,8.377441l-17.71299,0l-0.000023,0z" id="path4090" fill-rule="evenodd" fill="#00892c"/>
  <path d="m129.163055,599.424622c3.514725,-14.790344 7.147308,-28.876953 10.488556,-42.076294c3.600433,-14.222778 6.853424,-27.489563 9.501404,-39.663635c1.544434,-7.113342 2.895187,-13.830627 3.989777,-20.084351c1.094604,-6.253784 1.922928,-12.037659 2.550156,-17.335388c0.614014,-5.234253 1.013687,-9.989563 1.275085,-14.137695c0.261398,-4.147949 0.372543,-7.675659 0.452438,-10.603027c0.07991,-2.927399 0.15657,-5.251282 0.287918,-6.844421c0.131363,-1.593292 0.337555,-2.469849 0.699249,-2.580658c0.361679,-0.110962 0.870148,0.559265 1.439606,2.019562c0.569443,1.460449 1.213486,3.735077 1.809769,6.7323c0.596298,2.99707 1.1203,6.725586 1.480743,11.164185c0.360489,4.438477 0.519119,9.548035 0.411316,15.20343c-0.102783,5.715698 -0.447464,12.00824 -1.110535,18.737976c-0.663101,6.729553 -1.622787,13.935364 -2.838104,21.430786c-2.072205,12.812622 -4.846039,26.668152 -8.102905,41.234497c-2.641159,11.812927 -5.627502,24.164612 -8.596512,36.802734l-13.737961,0z" id="path4088" fill-rule="evenodd" fill="#00892c"/>
  <path d="m186.665039,599.424622c0.076355,-2.6474 0.178528,-5.263489 0.246811,-7.944092c0.007889,-0.264526 -0.006592,-0.54248 0,-0.807678c0.556824,-22.625488 0.820923,-44.212585 1.135208,-63.955322c0.314301,-19.742737 0.712158,-37.636414 1.283295,-52.645264c0.571152,-15.008789 1.309219,-27.142517 2.221069,-35.545593c0.91188,-8.403198 1.970383,-13.060303 3.060165,-13.060303c1.089828,0 2.13176,4.628967 3.109558,12.99292c0.977783,8.364105 1.905685,20.444702 2.764008,35.411072c0.858322,14.966431 1.638626,32.838989 2.122406,52.712463c0.483734,19.873596 0.65947,41.777954 0.098709,64.830566c-0.006607,0.270142 0.006561,0.538025 0,0.807861c-0.059494,2.428101 -0.169968,4.799011 -0.246796,7.203369l-15.794434,0z" id="path4086" fill-rule="evenodd" fill="#00892c"/>
  <path d="m228.002304,599.424622c0.332825,-11.325867 1.041138,-22.19165 2.13324,-32.144348c1.322998,-12.05719 3.183258,-22.78833 5.248413,-31.544006c2.06514,-8.755676 4.302109,-15.547607 6.162659,-20.043884c1.860535,-4.49646 3.309006,-6.709351 3.995544,-6.327209c0.686493,0.381775 0.549759,3.327209 -0.067657,8.266846c-0.617477,4.939758 -1.671799,11.88855 -2.708847,20.552063c-1.037048,8.663696 -2.034149,19.03302 -2.742722,30.666504c-0.575272,9.445374 -0.939102,19.765686 -1.185104,30.574036l-10.835464,0l-0.000061,0z" id="path4038" fill-rule="evenodd" fill="#00892c"/>
  <path d="m366.040222,416.242188c-0.407867,-0.008972 -1.068512,0.689301 -1.933197,2.131775c-0.98819,1.648468 -2.244019,4.270813 -3.619568,7.798157c-1.375549,3.527252 -2.861572,7.968262 -4.277679,13.352234c-1.416107,5.383789 -2.749725,11.723419 -3.784119,18.850098c-0.94696,6.536011 -1.623138,13.733215 -1.974304,21.486877c-0.351074,7.753479 -0.35788,16.065369 0.041046,24.740723c0.594543,12.808594 1.964874,26.425415 4.113159,40.505432c2.148346,14.079834 5.065643,28.610535 8.390839,43.310242c0.677979,2.997131 1.364746,5.927551 2.05658,8.864075c0.270935,1.156067 0.550018,2.274963 0.822632,3.42218l13.737976,0c-0.692139,-2.946106 -1.368896,-5.821594 -2.05661,-8.807983c-0.665283,-2.904968 -1.312195,-5.809631 -1.974304,-8.75177c-3.247437,-14.430298 -6.177979,-28.469238 -8.514252,-41.851746c-2.336212,-13.382446 -4.064148,-26.110779 -5.100311,-38.092957c-0.703857,-8.089966 -1.121643,-15.838867 -1.233948,-23.057739c-0.112274,-7.21875 0.078613,-13.921875 0.452454,-20.08429c0.808624,-13.409424 2.562042,-24.14624 3.825226,-31.585175c0.631653,-3.719513 1.117279,-6.640564 1.357361,-8.695709c0.240112,-2.055267 0.218506,-3.22757 -0.16452,-3.478363c-0.047882,-0.031281 -0.106232,-0.054779 -0.164551,-0.056l0.000092,-0.000061z" id="path4082" fill-rule="evenodd" fill="#00892c"/>
  <path d="m299.500488,417.519196c-0.149017,-0.040558 -0.34903,0.036591 -0.492859,0.336182c-0.143829,0.299408 -0.211456,0.87616 -0.246429,1.277191c-0.073822,0.709045 -0.080414,1.629303 0,2.688965c0.158661,2.094635 0.619415,4.909973 1.281433,8.268555c1.317261,6.675659 3.538757,15.849213 6.210022,27.023926c5.273407,22.050964 12.432922,52.339294 17.98941,88.063171c2.698334,17.36554 4.953766,36.040405 6.505737,55.526794l15.919403,0c-1.68869,-21.289673 -4.532898,-41.572937 -7.984314,-60.165283c-3.41449,-18.408752 -7.426361,-35.181152 -11.53299,-50.014526c-4.106506,-14.833191 -8.292511,-27.713867 -12.124329,-38.317474c-3.896881,-10.787567 -7.376343,-19.147644 -10.054352,-25.007233c-1.358368,-2.980438 -2.473175,-5.245544 -3.35144,-6.856781c-0.448853,-0.83197 -0.825989,-1.426605 -1.133575,-1.882324c-0.199707,-0.419312 -0.436218,-0.478149 -0.591431,-0.605042c-0.155182,-0.126831 -0.245422,-0.29541 -0.394287,-0.336121z" id="path4080" fill-rule="evenodd" fill="#00892c"/>
  <path d="m270.57373,453.100891c-0.836517,0.384064 -0.545654,5.019165 0.534729,13.071594c1.080383,8.052429 2.935883,19.561829 5.100342,33.773132c2.164429,14.211365 4.628693,31.088745 6.498779,49.930359c1.562775,15.7453 2.705811,32.870667 2.879211,50.828003l13.038727,0c-0.358948,-19.066589 -1.948853,-37.079102 -4.154297,-53.40863c-2.622223,-19.415527 -6.056427,-36.517395 -9.419159,-50.603577c-3.362701,-14.086365 -6.646057,-25.120544 -9.21347,-32.595032c-2.567383,-7.474365 -4.428314,-11.380005 -5.264862,-10.99585z" id="path4078" fill-rule="evenodd" fill="#00892c"/>
  <path d="m402.537964,456.712402c-0.973297,0 -1.886414,3.729431 -2.777069,10.341309c-0.890625,6.611755 -1.777527,16.132568 -2.644806,27.957458c-0.86731,11.825012 -1.691833,25.925842 -2.336273,41.665894c-0.64447,15.73999 -1.090485,33.128479 -0.837555,51.466064c0.007935,0.609009 0.034119,1.196228 0.044006,1.803528c0.04657,3.164368 0.128693,6.321655 0.220398,9.439514l14.105774,0c-0.074249,-3.259583 -0.164581,-6.536499 -0.220398,-9.860352c-0.009247,-0.591736 -0.035675,-1.149719 -0.044006,-1.743591c-0.253479,-17.87738 -0.239258,-35.032898 -0.308563,-50.684387c-0.069214,-15.651489 -0.208496,-29.799866 -0.617096,-41.725891c-0.40863,-11.925781 -1.054901,-21.582092 -1.85141,-28.257996c-0.796478,-6.676086 -1.759674,-10.40155 -2.733002,-10.40155z" id="path4076" fill-rule="evenodd" fill="#00892c"/>
  <path d="m415.480408,471.558289c-0.864929,0.36554 -0.797607,4.366455 -0.205658,11.276367c0.59201,6.909973 1.713715,16.743958 2.879211,28.892273c1.165497,12.148376 2.344055,26.639404 3.290527,42.80542c0.833893,14.243042 1.462433,29.832703 1.933197,46.171631l13.162109,0c-0.541443,-16.944458 -1.559753,-33.181519 -3.043732,-47.966858c-1.659485,-16.533752 -3.864716,-31.291138 -6.252014,-43.478638c-2.387268,-12.187317 -4.947388,-21.809937 -7.074646,-28.275085c-2.127228,-6.465149 -3.824005,-9.790649 -4.688995,-9.42511z" id="path4068" fill-rule="evenodd" fill="#00892c"/>
  <rect id="rect4094" width="816.824854" height="77.357694" x="40.127765" y="577.34457" fill="#00892c"/>
  <path id="path2886" d="m48.874161,599.424622c0.034088,-3.531494 0.0466,-7.06488 0,-10.659363c-0.035931,-2.523132 -0.12492,-5.079407 -0.20565,-7.629639c-0.495659,-15.66217 -1.86034,-30.713013 -4.195431,-44.488586c-2.335098,-13.775635 -5.619801,-26.285706 -9.62479,-37.195374c-3.656399,-10.126465 -7.898331,-18.872009 -12.174959,-26.087158c-4.276649,-7.215271 -8.603771,-12.885559 -12.421751,-17.335388c-8.630639,-7.852783 -13.573979,-13.237823 -13.120979,-14.754791c0.47921,-1.497681 6.38474,1.071381 16.61717,7.068909c4.697069,3.744019 10.06477,9.115143 15.46549,16.381622c5.400711,7.266479 10.80481,16.479553 15.506611,27.489685c4.948917,11.733765 9.084518,25.339722 12.010429,40.280945c2.925896,14.941345 4.660637,31.192017 5.141449,47.910767c0.078323,2.72229 0.107933,5.451904 0.123329,8.134705c0.025658,3.677429 -0.014481,7.280457 -0.08226,10.883667l-13.038719,0l0.000061,0z" fill-rule="evenodd" fill="#00892c"/>
  <path id="path2888" d="m91.768448,599.424622c0.278648,-3.498596 0.589172,-7.002197 0.822594,-10.54657c1.383926,-21.013123 1.823242,-41.411438 1.425819,-60.66095c-0.46035,-22.5354 -2.088089,-43.526001 -4.277458,-62.231812c-2.189331,-18.705811 -4.919899,-35.089172 -7.458099,-48.693298c-2.538185,-13.604095 -4.838806,-24.436066 -6.25164,-32.013519c-1.412865,-7.577362 -1.946274,-11.915649 -1.041946,-12.491272c0.90432,-0.5755 3.15184,2.665344 6.25164,9.424591c3.099846,6.759247 7.075386,17.058716 11.132339,30.517395c4.056946,13.458984 8.156792,30.114471 11.516182,49.441406c3.359398,19.326904 5.9394,41.314636 6.964561,65.074097c0.870193,20.25354 0.677208,41.754456 -0.767738,63.80249c-0.184654,2.817749 -0.382179,5.590454 -0.603241,8.377441l-17.71299,0l-0.000023,0z" fill-rule="evenodd" fill="#00892c"/>
  <path id="path2890" d="m129.163055,599.424622c3.514725,-14.790344 7.147308,-28.876953 10.488556,-42.076294c3.600433,-14.222778 6.853424,-27.489563 9.501404,-39.663635c1.544434,-7.113342 2.895187,-13.830627 3.989777,-20.084351c1.094604,-6.253784 1.922928,-12.037659 2.550156,-17.335388c0.614014,-5.234253 1.013687,-9.989563 1.275085,-14.137695c0.261398,-4.147949 0.372543,-7.675659 0.452438,-10.603027c0.07991,-2.927399 0.15657,-5.251282 0.287918,-6.844421c0.131363,-1.593292 0.337555,-2.469849 0.699249,-2.580658c0.361679,-0.110962 0.870148,0.559265 1.439606,2.019562c0.569443,1.460449 1.213486,3.735077 1.809769,6.7323c0.596298,2.99707 1.1203,6.725586 1.480743,11.164185c0.360489,4.438477 0.519119,9.548035 0.411316,15.20343c-0.102783,5.715698 -0.447464,12.00824 -1.110535,18.737976c-0.663101,6.729553 -1.622787,13.935364 -2.838104,21.430786c-2.072205,12.812622 -4.846039,26.668152 -8.102905,41.234497c-2.641159,11.812927 -5.627502,24.164612 -8.596512,36.802734l-13.737961,0z" fill-rule="evenodd" fill="#00892c"/>
  <path id="path2892" d="m186.665039,599.424622c0.076355,-2.6474 0.178528,-5.263489 0.246811,-7.944092c0.007889,-0.264526 -0.006592,-0.54248 0,-0.807678c0.556824,-22.625488 0.820923,-44.212585 1.135208,-63.955322c0.314301,-19.742737 0.712158,-37.636414 1.283295,-52.645264c0.571152,-15.008789 1.309219,-27.142517 2.221069,-35.545593c0.91188,-8.403198 1.970383,-13.060303 3.060165,-13.060303c1.089828,0 2.13176,4.628967 3.109558,12.99292c0.977783,8.364105 1.905685,20.444702 2.764008,35.411072c0.858322,14.966431 1.638626,32.838989 2.122406,52.712463c0.483734,19.873596 0.65947,41.777954 0.098709,64.830566c-0.006607,0.270142 0.006561,0.538025 0,0.807861c-0.059494,2.428101 -0.169968,4.799011 -0.246796,7.203369l-15.794434,0z" fill-rule="evenodd" fill="#00892c"/>
  <path id="path2894" d="m228.002304,599.424622c0.332825,-11.325867 1.041138,-22.19165 2.13324,-32.144348c1.322998,-12.05719 3.183258,-22.78833 5.248413,-31.544006c2.06514,-8.755676 4.302109,-15.547607 6.162659,-20.043884c1.860535,-4.49646 3.309006,-6.709351 3.995544,-6.327209c0.686493,0.381775 0.549759,3.327209 -0.067657,8.266846c-0.617477,4.939758 -1.671799,11.88855 -2.708847,20.552063c-1.037048,8.663696 -2.034149,19.03302 -2.742722,30.666504c-0.575272,9.445374 -0.939102,19.765686 -1.185104,30.574036l-10.835464,0l-0.000061,0z" fill-rule="evenodd" fill="#00892c"/>
  <path id="path2896" d="m366.040222,416.242188c-0.407867,-0.008972 -1.068512,0.689301 -1.933197,2.131775c-0.98819,1.648468 -2.244019,4.270813 -3.619568,7.798157c-1.375549,3.527252 -2.861572,7.968262 -4.277679,13.352234c-1.416107,5.383789 -2.749725,11.723419 -3.784119,18.850098c-0.94696,6.536011 -1.623138,13.733215 -1.974304,21.486877c-0.351074,7.753479 -0.35788,16.065369 0.041046,24.740723c0.594543,12.808594 1.964874,26.425415 4.113159,40.505432c2.148346,14.079834 5.065643,28.610535 8.390839,43.310242c0.677979,2.997131 1.364746,5.927551 2.05658,8.864075c0.270935,1.156067 0.550018,2.274963 0.822632,3.42218l13.737976,0c-0.692139,-2.946106 -1.368896,-5.821594 -2.05661,-8.807983c-0.665283,-2.904968 -1.312195,-5.809631 -1.974304,-8.75177c-3.247437,-14.430298 -6.177979,-28.469238 -8.514252,-41.851746c-2.336212,-13.382446 -4.064148,-26.110779 -5.100311,-38.092957c-0.703857,-8.089966 -1.121643,-15.838867 -1.233948,-23.057739c-0.112274,-7.21875 0.078613,-13.921875 0.452454,-20.08429c0.808624,-13.409424 2.562042,-24.14624 3.825226,-31.585175c0.631653,-3.719513 1.117279,-6.640564 1.357361,-8.695709c0.240112,-2.055267 0.218506,-3.22757 -0.16452,-3.478363c-0.047882,-0.031281 -0.106232,-0.054779 -0.164551,-0.056l0.000092,-0.000061z" fill-rule="evenodd" fill="#00892c"/>
  <path id="path2898" d="m299.500488,417.519196c-0.149017,-0.040558 -0.34903,0.036591 -0.492859,0.336182c-0.143829,0.299408 -0.211456,0.87616 -0.246429,1.277191c-0.073822,0.709045 -0.080414,1.629303 0,2.688965c0.158661,2.094635 0.619415,4.909973 1.281433,8.268555c1.317261,6.675659 3.538757,15.849213 6.210022,27.023926c5.273407,22.050964 12.432922,52.339294 17.98941,88.063171c2.698334,17.36554 4.953766,36.040405 6.505737,55.526794l15.919403,0c-1.68869,-21.289673 -4.532898,-41.572937 -7.984314,-60.165283c-3.41449,-18.408752 -7.426361,-35.181152 -11.53299,-50.014526c-4.106506,-14.833191 -8.292511,-27.713867 -12.124329,-38.317474c-3.896881,-10.787567 -7.376343,-19.147644 -10.054352,-25.007233c-1.358368,-2.980438 -2.473175,-5.245544 -3.35144,-6.856781c-0.448853,-0.83197 -0.825989,-1.426605 -1.133575,-1.882324c-0.199707,-0.419312 -0.436218,-0.478149 -0.591431,-0.605042c-0.155182,-0.126831 -0.245422,-0.29541 -0.394287,-0.336121z" fill-rule="evenodd" fill="#00892c"/>
  <path id="path2900" d="m270.57373,453.100891c-0.836517,0.384064 -0.545654,5.019165 0.534729,13.071594c1.080383,8.052429 2.935883,19.561829 5.100342,33.773132c2.164429,14.211365 4.628693,31.088745 6.498779,49.930359c1.562775,15.7453 2.705811,32.870667 2.879211,50.828003l13.038727,0c-0.358948,-19.066589 -1.948853,-37.079102 -4.154297,-53.40863c-2.622223,-19.415527 -6.056427,-36.517395 -9.419159,-50.603577c-3.362701,-14.086365 -6.646057,-25.120544 -9.21347,-32.595032c-2.567383,-7.474365 -4.428314,-11.380005 -5.264862,-10.99585z" fill-rule="evenodd" fill="#00892c"/>
  <path id="path2902" d="m402.537964,456.712402c-0.973297,0 -1.886414,3.729431 -2.777069,10.341309c-0.890625,6.611755 -1.777527,16.132568 -2.644806,27.957458c-0.86731,11.825012 -1.691833,25.925842 -2.336273,41.665894c-0.64447,15.73999 -1.090485,33.128479 -0.837555,51.466064c0.007935,0.609009 0.034119,1.196228 0.044006,1.803528c0.04657,3.164368 0.128693,6.321655 0.220398,9.439514l14.105774,0c-0.074249,-3.259583 -0.164581,-6.536499 -0.220398,-9.860352c-0.009247,-0.591736 -0.035675,-1.149719 -0.044006,-1.743591c-0.253479,-17.87738 -0.239258,-35.032898 -0.308563,-50.684387c-0.069214,-15.651489 -0.208496,-29.799866 -0.617096,-41.725891c-0.40863,-11.925781 -1.054901,-21.582092 -1.85141,-28.257996c-0.796478,-6.676086 -1.759674,-10.40155 -2.733002,-10.40155z" fill-rule="evenodd" fill="#00892c"/>
  <path id="path2904" d="m415.480408,471.558289c-0.864929,0.36554 -0.797607,4.366455 -0.205658,11.276367c0.59201,6.909973 1.713715,16.743958 2.879211,28.892273c1.165497,12.148376 2.344055,26.639404 3.290527,42.80542c0.833893,14.243042 1.462433,29.832703 1.933197,46.171631l13.162109,0c-0.541443,-16.944458 -1.559753,-33.181519 -3.043732,-47.966858c-1.659485,-16.533752 -3.864716,-31.291138 -6.252014,-43.478638c-2.387268,-12.187317 -4.947388,-21.809937 -7.074646,-28.275085c-2.127228,-6.465149 -3.824005,-9.790649 -4.688995,-9.42511z" fill-rule="evenodd" fill="#00892c"/>
  <path d="m59.483261,581.437683c0.035011,-3.626404 0.047913,-7.255371 0,-10.946655c-0.03685,-2.591125 -0.128319,-5.216309 -0.211205,-7.835327c-0.509026,-16.084412 -1.910477,-31.540955 -4.308517,-45.687866c-2.398048,-14.146912 -5.77129,-26.994385 -9.884251,-38.197937c-3.75494,-10.399658 -8.111229,-19.380798 -12.503147,-26.790588c-4.391941,-7.409576 -8.835722,-13.232941 -12.756611,-17.802643c-8.863291,-8.064484 -13.939891,-13.594482 -13.47469,-15.152435c0.49214,-1.538025 6.55687,1.100189 17.06512,7.259338c4.823702,3.845032 10.336092,9.360901 15.882391,16.823395c5.546299,7.462219 11.096088,16.923615 15.924641,28.230682c5.08231,12.05011 9.329395,26.022644 12.334171,41.366638c3.004784,15.344177 4.786278,32.032898 5.280067,49.202332c0.080421,2.795776 0.110809,5.598816 0.126602,8.353943c0.026337,3.776733 -0.014862,7.47699 -0.084496,11.177124l-13.390198,0l0.000122,0z" id="path2906" fill-rule="evenodd" fill="#00892c"/>
  <path d="m103.533852,581.437683c0.286118,-3.592773 0.605019,-7.190857 0.844742,-10.830688c1.421227,-21.579712 1.872383,-42.527893 1.464279,-62.296326c-0.472786,-23.142944 -2.144409,-44.69928 -4.392769,-63.909454c-2.248367,-19.209839 -5.052551,-36.035034 -7.659187,-50.005951c-2.606583,-13.970825 -4.969208,-25.094604 -6.420143,-32.876373c-1.450951,-7.781799 -1.998756,-12.236847 -1.070045,-12.828064c0.928719,-0.591064 3.236824,2.737152 6.420158,9.67865c3.183411,6.941467 7.26609,17.518463 11.432457,31.340118c4.16629,13.821686 8.376678,30.926239 11.826614,50.774323c3.449959,19.847809 6.099495,42.428131 7.152321,66.828217c0.893631,20.7995 0.695435,42.879944 -0.788452,65.522461c-0.189636,2.893555 -0.392487,5.740967 -0.619507,8.603088l-18.190468,0z" id="path2908" fill-rule="evenodd" fill="#00892c"/>
  <path d="m141.936508,581.437683c3.609467,-15.189087 7.339966,-29.655457 10.771301,-43.210388c3.697495,-14.606384 7.038162,-28.230774 9.757507,-40.732971c1.586075,-7.305054 2.973267,-14.203308 4.097336,-20.625671c1.12413,-6.422546 1.974747,-12.362244 2.618927,-17.802673c0.630524,-5.375427 1.041016,-10.259003 1.309418,-14.518738c0.268463,-4.259827 0.382599,-7.882874 0.464676,-10.889069c0.08197,-3.006226 0.160767,-5.392792 0.295654,-7.02887c0.134888,-1.636139 0.346649,-2.536316 0.718094,-2.650269c0.371429,-0.113983 0.893646,0.57428 1.478424,2.074036c0.584793,1.499878 1.246201,3.835876 1.858566,6.913666c0.612396,3.078094 1.150513,6.907043 1.52066,11.46524c0.370178,4.558167 0.533096,9.80545 0.422394,15.613373c-0.10556,5.869751 -0.459549,12.33197 -1.140472,19.24292c-0.680954,6.911072 -1.66655,14.311218 -2.914581,22.008606c-2.128113,13.157898 -4.976746,27.387024 -8.321381,42.346191c-2.712357,12.131042 -5.77916,24.815857 -8.828232,37.794617l-14.108292,0z" id="path2910" fill-rule="evenodd" fill="#00892c"/>
  <path d="m200.988571,581.437683c0.078445,-2.71875 0.183289,-5.405273 0.253418,-8.15802c0.007904,-0.271973 -0.006561,-0.557434 0,-0.829529c0.571884,-23.235657 0.843079,-45.404419 1.165848,-65.679382c0.322754,-20.274902 0.731339,-38.651062 1.317886,-54.064392c0.586517,-15.413513 1.344543,-27.874207 2.28093,-36.503784c0.936462,-8.629822 2.023483,-13.412537 3.142685,-13.412537c1.119217,0 2.189194,4.753815 3.193344,13.343262c1.00415,8.589478 1.957092,20.995667 2.838547,36.36554c0.881424,15.369873 1.68277,33.724182 2.179596,54.133667c0.496796,20.409302 0.677246,42.904053 0.101349,66.578003c-0.006592,0.277344 0.006577,0.552551 0,0.829773c-0.061096,2.493408 -0.174576,4.928223 -0.253464,7.3974l-16.220169,0l0.000031,0z" id="path2912" fill-rule="evenodd" fill="#00892c"/>
  <path d="m243.44017,581.437683c0.341812,-11.630981 1.069199,-22.789978 2.190704,-33.010681c1.358688,-12.382263 3.269089,-23.40271 5.389908,-32.394348c2.120819,-8.991699 4.418091,-15.966675 6.328796,-20.58429c1.910706,-4.617737 3.398224,-6.890137 4.10321,-6.497925c0.705048,0.392151 0.564636,3.416931 -0.069458,8.489929c-0.634125,5.072815 -1.716888,12.208801 -2.781891,21.105957c-1.065002,8.897217 -2.088959,19.546021 -2.81662,31.493164c-0.59082,9.700012 -0.964417,20.298584 -1.217072,31.398193l-11.127563,0l-0.000015,0z" id="path2914" fill-rule="evenodd" fill="#00892c"/>
  <path d="m385.199158,393.317078c-0.418884,-0.008942 -1.09729,0.70813 -1.985291,2.189301c-1.014862,1.692871 -2.304535,4.386017 -3.717194,8.008392c-1.412598,3.622375 -2.93869,8.183044 -4.392944,13.712036c-1.454315,5.529175 -2.823883,12.03952 -3.886139,19.358215c-0.972504,6.71228 -1.666931,14.103699 -2.027557,22.066101c-0.360535,7.962646 -0.367493,16.498596 0.042145,25.407837c0.610596,13.15387 2.017792,27.137634 4.22403,41.597229c2.206238,14.459473 5.202209,29.381897 8.617035,44.477844c0.696259,3.077942 1.40152,6.087219 2.11203,9.103027c0.278229,1.187134 0.564819,2.336182 0.844818,3.514465l14.108276,0c-0.710785,-3.025513 -1.405762,-5.978577 -2.11203,-9.045349c-0.683258,-2.983337 -1.347565,-5.966309 -2.027527,-8.987793c-3.334991,-14.819336 -6.344513,-29.236755 -8.743774,-42.980042c-2.399231,-13.743225 -4.173676,-26.814636 -5.237793,-39.11969c-0.722839,-8.308167 -1.151886,-16.265991 -1.267212,-23.679382c-0.115295,-7.41333 0.080688,-14.297241 0.464661,-20.625793c0.830383,-13.770752 2.631073,-24.797058 3.928345,-32.436523c0.648621,-3.819672 1.147339,-6.819458 1.393921,-8.930176c0.246552,-2.110626 0.224396,-3.314545 -0.168945,-3.572052c-0.049225,-0.032043 -0.109131,-0.056244 -0.168976,-0.057373l0.000122,-0.000275z" id="path2916" fill-rule="evenodd" fill="#00892c"/>
  <path d="m316.865723,394.62851c-0.153046,-0.041565 -0.358398,0.037537 -0.506134,0.345245c-0.147705,0.307556 -0.217133,0.89975 -0.253052,1.311646c-0.075867,0.728241 -0.08255,1.673279 0,2.761597c0.162964,2.151184 0.636078,5.042114 1.315948,8.491272c1.352722,6.855682 3.634186,16.27652 6.377472,27.752502c5.415497,22.645447 12.768005,53.750122 18.474304,90.437134c2.771118,17.833618 5.087311,37.011841 6.681152,57.02356l16.348541,0c-1.734253,-21.863647 -4.655121,-42.693787 -8.199585,-61.78717c-3.506531,-18.90509 -7.626556,-36.129456 -11.843842,-51.36261c-4.217285,-15.233276 -8.516052,-28.460999 -12.451202,-39.350616c-4.001923,-11.078461 -7.575165,-19.663849 -10.325348,-25.681305c-1.39502,-3.06073 -2.539917,-5.386993 -3.441803,-7.041626c-0.460968,-0.854279 -0.848267,-1.465057 -1.164124,-1.933044c-0.205139,-0.430542 -0.448029,-0.490967 -0.607452,-0.621338c-0.159332,-0.13031 -0.251953,-0.303314 -0.404877,-0.345245z" id="path2918" fill-rule="evenodd" fill="#00892c"/>
  <path d="m287.15921,431.169525c-0.85907,0.39447 -0.560394,5.154388 0.549103,13.423889c1.109497,8.269623 3.015045,20.089264 5.237823,34.683685c2.222748,14.59436 4.753479,31.926636 6.673981,51.276184c1.604889,16.169739 2.778748,33.756775 2.956818,52.198242l13.390198,0c-0.368591,-19.580688 -2.001373,-38.078613 -4.266296,-54.848389c-2.692871,-19.938904 -6.219666,-37.501831 -9.673035,-51.967651c-3.453369,-14.466125 -6.825256,-25.797821 -9.461853,-33.473755c-2.636597,-7.67572 -4.547699,-11.686798 -5.406738,-11.292206z" id="path2920" fill-rule="evenodd" fill="#00892c"/>
  <path d="m422.680786,434.878326c-0.999542,0 -1.937286,3.83017 -2.851959,10.620056c-0.914642,6.789978 -1.825409,16.567474 -2.716125,28.711334c-0.890686,12.143738 -1.737396,26.624512 -2.3992,42.78894c-0.661835,16.164429 -1.119934,34.021606 -0.860168,52.853394c0.007935,0.625427 0.035034,1.228455 0.045166,1.852295c0.047913,3.249634 0.132202,6.491943 0.226379,9.693848l14.485992,0c-0.076202,-3.347595 -0.168976,-6.712524 -0.226349,-10.12616c-0.009186,-0.607605 -0.036591,-1.180542 -0.045135,-1.790527c-0.260315,-18.359375 -0.245758,-35.977295 -0.316895,-52.050781c-0.071045,-16.073181 -0.214111,-30.603271 -0.633759,-42.850647c-0.419617,-12.247192 -1.083344,-22.163971 -1.901276,-29.019897c-0.817932,-6.855927 -1.807159,-10.681854 -2.806671,-10.681854z" id="path2922" fill-rule="evenodd" fill="#00892c"/>
  <path d="m435.972107,450.12439c-0.888275,0.375397 -0.819122,4.484253 -0.211212,11.580444c0.607941,7.09613 1.759918,17.195251 2.956818,29.671082c1.19696,12.475769 2.407257,27.357544 3.379272,43.959351c0.856323,14.626953 1.501831,30.636841 1.985291,47.41626l13.516907,0c-0.55603,-17.401245 -1.601776,-34.075806 -3.125793,-49.26001c-1.704254,-16.979187 -3.968903,-32.134644 -6.420502,-44.650696c-2.451691,-12.515869 -5.080811,-22.397827 -7.265381,-29.037231c-2.18457,-6.639343 -3.927124,-10.054626 -4.815399,-9.679199z" id="path2924" fill-rule="evenodd" fill="#00892c"/>
  <path id="path2926" d="m85.920677,587.004822c0.030151,-3.125977 0.041336,-6.253967 0,-9.435852c-0.031715,-2.233643 -0.110558,-4.49646 -0.18203,-6.753967c-0.438774,-13.86438 -1.646797,-27.187561 -3.713875,-39.381958c-2.067055,-12.194275 -4.974716,-23.268555 -8.520012,-32.925842c-3.236671,-8.964294 -6.991714,-16.705811 -10.777458,-23.092834c-3.785759,-6.386902 -7.616192,-11.406433 -10.995922,-15.345581c-7.63998,-6.951263 -12.0159,-11.718201 -11.61491,-13.060974c0.424221,-1.325806 5.651901,0.948334 14.709789,6.257324c4.157917,3.31427 8.909481,8.06897 13.690281,14.501465c4.780807,6.432312 9.564583,14.587891 13.7267,24.33429c4.380859,10.386902 8.041763,22.430847 10.631821,35.657166c2.590073,13.226379 4.125656,27.611755 4.5513,42.411255c0.069359,2.409973 0.095535,4.826172 0.1091,7.20105c0.022659,3.255493 -0.013161,6.444763 -0.072784,9.63446l-11.542076,0l0.000092,0l-0.000015,0z" fill-rule="evenodd" fill="#00892c"/>
  <path id="path2928" d="m123.891388,587.004822c0.246643,-3.096924 0.521515,-6.198486 0.728149,-9.33606c1.225082,-18.600952 1.613953,-36.658081 1.262177,-53.697937c-0.407532,-19.948669 -1.848434,-38.529907 -3.786453,-55.088562c-1.938049,-16.558563 -4.355202,-31.061523 -6.602089,-43.104065c-2.246819,-12.042755 -4.28334,-21.631195 -5.534012,-28.338776c-1.25071,-6.707764 -1.722878,-10.547974 -0.922348,-11.057556c0.800522,-0.509521 2.790062,2.359283 5.534035,8.342743c2.744011,5.983459 6.263229,15.100616 9.854523,27.014618c3.591263,11.913971 7.220535,26.657745 10.194321,43.766205c2.973755,17.108582 5.257614,36.572205 6.165131,57.604736c0.770294,17.928528 0.599472,36.961426 -0.679626,56.478882c-0.163437,2.494324 -0.338287,4.948669 -0.533997,7.415771l-15.67981,0z" fill-rule="evenodd" fill="#00892c"/>
  <path id="path2930" d="m156.993668,587.004822c3.111282,-13.092712 6.326889,-25.562439 9.284637,-37.246521c3.187149,-12.590393 6.066727,-24.33429 8.410767,-35.110962c1.367188,-6.296875 2.562851,-12.243103 3.531799,-17.778931c0.968979,-5.53595 1.70224,-10.655945 2.257477,-15.34552c0.543518,-4.633423 0.897293,-8.843018 1.128708,-12.514832c0.231384,-3.671936 0.329788,-6.7948 0.400513,-9.386169c0.070648,-2.59137 0.13858,-4.648407 0.254852,-6.058807c0.116211,-1.410248 0.298813,-2.186127 0.618988,-2.284485c0.320175,-0.098145 0.770279,0.495117 1.274384,1.788025c0.504074,1.292664 1.074203,3.306183 1.60202,5.959259c0.527878,2.653259 0.991714,5.953857 1.310791,9.882813c0.319092,3.929016 0.459518,8.452026 0.36412,13.458313c-0.090958,5.059692 -0.396118,10.630005 -0.983093,16.587219c-0.586975,5.957031 -1.436554,12.335876 -2.512314,18.970886c-1.834396,11.341675 -4.289825,23.606995 -7.172867,36.501404c-2.337997,10.456787 -4.981506,21.390686 -7.609756,32.578308l-12.161026,0z" fill-rule="evenodd" fill="#00892c"/>
  <path id="path2932" d="m207.89534,587.004822c0.067657,-2.343445 0.15802,-4.659424 0.21843,-7.032104c0.006577,-0.234436 -0.005264,-0.480469 0,-0.715027c0.492935,-20.028748 0.726746,-39.137695 1.004913,-56.61438c0.278229,-17.476318 0.630432,-33.316345 1.136017,-46.602356c0.505585,-13.286011 1.158951,-24.026947 1.966125,-31.465607c0.807205,-7.438538 1.744186,-11.561066 2.708893,-11.561066c0.964752,0 1.88707,4.097534 2.752609,11.501434c0.86557,7.404114 1.686996,18.097992 2.446762,31.346466c0.759781,13.248474 1.450531,29.069641 1.878769,46.661987c0.428223,17.592468 0.583786,36.982605 0.087418,57.388916c-0.00528,0.239075 0.005264,0.476379 0,0.71521c-0.052673,2.149414 -0.150482,4.248047 -0.218445,6.376526l-13.981491,0l0,0z" fill-rule="evenodd" fill="#00892c"/>
  <path id="path2934" d="m244.487717,587.004822c0.294617,-10.025757 0.921646,-19.644348 1.888367,-28.454651c1.171158,-10.673279 2.817886,-20.172546 4.645981,-27.92334c1.828094,-7.75061 3.808258,-13.762817 5.455292,-17.743103c1.646973,-3.980347 2.929199,-5.939026 3.536896,-5.601135c0.607758,0.338257 0.486694,2.945435 -0.059875,7.318237c-0.5466,4.37262 -1.479889,10.523865 -2.397919,18.192871c-0.91803,7.66925 -1.800659,16.848389 -2.427887,27.146484c-0.509247,8.361084 -0.831329,17.496948 -1.049103,27.064636l-9.59166,0l-0.000092,0z" fill-rule="evenodd" fill="#00892c"/>
  <path id="path2936" d="m366.681,424.848724c-0.361053,-0.007111 -0.945862,0.610443 -1.711273,1.887268c-0.874786,1.459137 -1.98645,3.78064 -3.204132,6.903076c-1.217651,3.122375 -2.533112,7.053436 -3.786652,11.819519c-1.25354,4.765839 -2.434113,10.377777 -3.349762,16.686371c-0.838257,5.785767 -1.436829,12.157043 -1.747711,19.020508c-0.31076,6.863525 -0.316742,14.221375 0.036377,21.90094c0.526306,11.338257 1.739288,23.391907 3.641022,35.855896c1.901733,12.463806 4.484192,25.326721 7.427704,38.338989c0.600159,2.653076 1.208069,5.247131 1.820526,7.846558c0.239838,1.023376 0.486847,2.013916 0.72818,3.029419l12.161072,0c-0.612671,-2.607971 -1.211731,-5.153381 -1.820526,-7.796997c-0.588928,-2.571411 -1.161591,-5.142761 -1.747681,-7.747192c-2.874725,-12.773804 -5.468872,-25.201355 -7.536957,-37.047791c-2.068085,-11.846313 -3.597656,-23.113586 -4.514893,-33.72052c-0.623077,-7.161316 -0.992889,-14.020874 -1.092285,-20.411011c-0.099365,-6.390076 0.069489,-12.323975 0.400482,-17.778931c0.71582,-11.870239 2.267975,-21.374573 3.3862,-27.959686c0.559052,-3.292572 0.988983,-5.878357 1.201508,-7.697601c0.212555,-1.819336 0.19339,-2.857208 -0.14563,-3.079163c-0.042358,-0.027588 -0.094086,-0.04834 -0.14563,-0.049469l0.000061,-0.000183z" fill-rule="evenodd" fill="#00892c"/>
  <path id="path2938" d="m307.778992,425.979309c-0.131866,-0.036041 -0.308929,0.032288 -0.436279,0.297668c-0.127289,0.264923 -0.187134,0.775513 -0.21817,1.130493c-0.065247,0.627594 -0.071014,1.4422 0,2.38031c0.140503,1.85434 0.54837,4.346344 1.134399,7.319427c1.166016,5.909393 3.132599,14.029816 5.497192,23.921906c4.668091,19.519836 11.005798,46.331543 15.9245,77.954895c2.388641,15.372375 4.385132,31.903503 5.759033,49.153259l14.092072,0c-1.494873,-18.846008 -4.012573,-36.800964 -7.067841,-53.259277c-3.022583,-16.295715 -6.573944,-31.142883 -10.209167,-44.273621c-3.635193,-13.130554 -7.340668,-24.532593 -10.732635,-33.919373c-3.449646,-9.549164 -6.529663,-16.949738 -8.900299,-22.136627c-1.202454,-2.638458 -2.189301,-4.643494 -2.966736,-6.069824c-0.397308,-0.736267 -0.731171,-1.262787 -1.003479,-1.666168c-0.176758,-0.371063 -0.3862,-0.423248 -0.523529,-0.5354c-0.13739,-0.112518 -0.217224,-0.261627 -0.34906,-0.297668z" fill-rule="evenodd" fill="#00892c"/>
  <path id="path2940" d="m282.172638,457.476685c-0.74054,0.340027 -0.483063,4.443054 0.473328,11.571289c0.95639,7.127991 2.598877,17.316467 4.514862,29.896362c1.916016,12.580139 4.097443,27.520264 5.752869,44.199158c1.383362,13.937866 2.395233,29.097656 2.548676,44.993774l11.542114,0c-0.31778,-16.878113 -1.725159,-32.822998 -3.67749,-47.278137c-2.321198,-17.18689 -5.361206,-32.325684 -8.337921,-44.795105c-2.976746,-12.469299 -5.88324,-22.237183 -8.155914,-28.85376c-2.272736,-6.616272 -3.920074,-10.073547 -4.660522,-9.733582z" fill-rule="evenodd" fill="#00892c"/>
  <path id="path2942" d="m398.98941,460.673645c-0.861603,0 -1.669922,3.301453 -2.458344,9.154297c-0.788391,5.852722 -1.573425,14.280884 -2.341248,24.748535c-0.767731,10.467651 -1.497589,22.949951 -2.068054,36.883301c-0.570496,13.933167 -0.965302,29.325806 -0.741425,45.55835c0.006592,0.539185 0.030182,1.058899 0.038971,1.596558c0.041321,2.80127 0.113983,5.59613 0.195129,8.356018l12.486664,0c-0.065674,-2.885498 -0.145691,-5.786133 -0.195129,-8.728455c-0.007874,-0.523865 -0.031586,-1.017822 -0.038971,-1.543579c-0.224426,-15.825317 -0.211853,-31.011475 -0.273132,-44.866455c-0.06134,-13.85498 -0.18457,-26.379517 -0.546295,-36.936523c-0.361694,-10.556885 -0.933838,-19.104797 -1.638885,-25.014404c-0.705048,-5.90979 -1.557739,-9.207642 -2.419281,-9.207642z" fill-rule="evenodd" fill="#00892c"/>
  <path id="path2944" d="m410.446259,473.815552c-0.765686,0.323425 -0.706085,3.865356 -0.182037,9.981934c0.523987,6.116699 1.516968,14.822021 2.548706,25.575989c1.031738,10.753784 2.074982,23.581543 2.912842,37.892029c0.738159,12.608154 1.294556,26.408325 1.711243,40.871765l11.651337,0c-0.479309,-14.999512 -1.380707,-29.372681 -2.694366,-42.460999c-1.468994,-14.635864 -3.421112,-27.699463 -5.534363,-38.487915c-2.113251,-10.788513 -4.379547,-19.306702 -6.262604,-25.029663c-1.883057,-5.722961 -3.385132,-8.666748 -4.150757,-8.34314z" fill-rule="evenodd" fill="#00892c"/>
  <path d="m274.212616,587.004822c-0.246613,-3.096924 -0.521545,-6.198486 -0.728149,-9.33606c-1.225067,-18.600952 -1.613983,-36.658081 -1.262146,-53.697937c0.407501,-19.948669 1.848358,-38.529907 3.786438,-55.088562c1.938049,-16.558563 4.355194,-31.061523 6.602051,-43.104065c2.246857,-12.042755 4.283356,-21.631195 5.534058,-28.338776c1.250702,-6.707764 1.72287,-10.547974 0.922333,-11.057556c-0.800537,-0.509521 -2.79007,2.359283 -5.534058,8.342743c-2.744019,5.983459 -6.263214,15.100616 -9.854523,27.014618c-3.591248,11.913971 -7.22052,26.657745 -10.194275,43.766205c-2.973816,17.108582 -5.25769,36.572205 -6.165192,57.604736c-0.770264,17.928528 -0.599426,36.961426 0.679657,56.478882c0.163452,2.494324 0.338287,4.948669 0.533997,7.415771l15.67981,0z" id="path2948" fill-rule="evenodd" fill="#00892c"/>
  <path d="m227.538528,424.848724c0.361069,-0.007111 0.945831,0.610443 1.711273,1.887268c0.874802,1.459137 1.986481,3.78064 3.204117,6.903076c1.217682,3.122375 2.533127,7.053436 3.786697,11.819519c1.253555,4.765839 2.434097,10.377777 3.349731,16.686371c0.838287,5.785767 1.436859,12.157043 1.747681,19.020508c0.310806,6.863525 0.316803,14.221375 -0.036316,21.90094c-0.526291,11.338257 -1.739304,23.391907 -3.641037,35.855896c-1.901733,12.463806 -4.484192,25.326721 -7.427704,38.338989c-0.600143,2.653076 -1.208084,5.247131 -1.820511,7.846558c-0.239822,1.023376 -0.486877,2.013916 -0.72821,3.029419l-12.161057,0c0.612686,-2.607971 1.211761,-5.153381 1.820526,-7.796997c0.588928,-2.571411 1.161575,-5.142761 1.747681,-7.747192c2.874725,-12.773804 5.468857,-25.201355 7.536957,-37.047791c2.0681,-11.846313 3.597641,-23.113586 4.514893,-33.72052c0.623032,-7.161316 0.992905,-14.020874 1.09227,-20.411011c0.09938,-6.390076 -0.069489,-12.323975 -0.400513,-17.778931c-0.715775,-11.870239 -2.267929,-21.374573 -3.386154,-27.959686c-0.559097,-3.292572 -0.988968,-5.878357 -1.201538,-7.697601c-0.212524,-1.819336 -0.19339,-2.857208 0.14566,-3.079163c0.042389,-0.027588 0.094101,-0.04834 0.14563,-0.049469l-0.000076,-0.000183z" id="path2956" fill-rule="evenodd" fill="#00892c"/>
  <path d="m398.318481,434.955566c0.131927,-0.035919 0.30899,0.032349 0.43631,0.297546c0.127289,0.265137 0.187134,0.775574 0.21814,1.130646c0.065277,0.627625 0.071075,1.442169 0,2.380127c-0.140442,1.854401 -0.548309,4.346558 -1.134369,7.31955c-1.166016,5.909485 -3.132568,14.029968 -5.497223,23.921997c-4.66806,19.519836 -11.005737,46.331482 -15.924469,77.954956c-2.388641,15.372253 -4.385132,31.903381 -5.759033,49.153137l-14.092072,0c1.494873,-18.845947 4.012573,-36.801025 7.067841,-53.259216c3.022583,-16.295776 6.573975,-31.142883 10.209167,-44.273621c3.635193,-13.130737 7.340668,-24.532715 10.732666,-33.919373c3.449615,-9.549316 6.529633,-16.949677 8.900238,-22.13678c1.202515,-2.638245 2.189331,-4.64328 2.966797,-6.069672c0.397278,-0.736481 0.73111,-1.262787 1.003448,-1.666168c0.176788,-0.371277 0.386169,-0.423187 0.52356,-0.535583c0.13736,-0.112488 0.217224,-0.261597 0.348999,-0.297546z" id="path2958" fill-rule="evenodd" fill="#00892c"/>
  <path d="m458.146393,457.476685c0.740509,0.340027 0.483032,4.443054 -0.473358,11.571289c-0.95639,7.127991 -2.598877,17.316467 -4.514862,29.896362c-1.915985,12.580139 -4.097412,27.520264 -5.752838,44.199158c-1.383362,13.937866 -2.395233,29.097656 -2.548706,44.993774l-11.542084,0c0.317749,-16.878113 1.725159,-32.822998 3.67746,-47.278137c2.321198,-17.18689 5.361206,-32.325684 8.337952,-44.795105c2.976746,-12.469299 5.883209,-22.237183 8.155914,-28.85376c2.272705,-6.616272 3.920013,-10.073547 4.660522,-9.733582z" id="path2960" fill-rule="evenodd" fill="#00892c"/>
  <path d="m167.589691,455.287903c0.861588,0 1.669922,3.301392 2.458344,9.154297c0.788406,5.852783 1.573441,14.280823 2.341217,24.748535c0.767746,10.467651 1.497635,22.949829 2.068085,36.88324c0.570511,13.933167 0.965332,29.325806 0.741425,45.558289c-0.006592,0.539246 -0.030136,1.059082 -0.038971,1.596741c-0.041321,2.801086 -0.113968,5.596069 -0.195114,8.355896l-12.486649,0c0.065674,-2.885437 0.14566,-5.786072 0.195084,-8.728455c0.007904,-0.523926 0.031616,-1.017822 0.038986,-1.543518c0.224426,-15.825317 0.211853,-31.011536 0.273148,-44.866455c0.061356,-13.854919 0.184601,-26.379517 0.54628,-36.936462c0.36171,-10.557007 0.933853,-19.104858 1.63887,-25.014526c0.705063,-5.909607 1.557739,-9.207581 2.419296,-9.207581z" id="path2962" fill-rule="evenodd" fill="#00892c"/>
  <path d="m253.532501,466.634521c0.765686,0.323486 0.706055,3.865479 0.182037,9.981934c-0.524048,6.11676 -1.516968,14.822144 -2.548706,25.57605c-1.031738,10.753723 -2.074982,23.581482 -2.912842,37.891968c-0.738174,12.608154 -1.294556,26.408325 -1.711258,40.871765l-11.651337,0c0.479324,-14.999451 1.380692,-29.37262 2.694382,-42.460938c1.468994,-14.635803 3.421097,-27.699524 5.534378,-38.487976c2.113235,-10.788513 4.379532,-19.306519 6.262589,-25.029602c1.883057,-5.723022 3.385071,-8.666809 4.150757,-8.343201z" id="path2964" fill-rule="evenodd" fill="#00892c"/>
  <path id="path2966" d="m443.73764,599.424622c0.034088,-3.531494 0.04657,-7.06488 0,-10.659363c-0.03595,-2.523132 -0.124939,-5.079407 -0.205658,-7.629639c-0.495667,-15.66217 -1.860321,-30.713013 -4.195435,-44.488586c-2.335114,-13.775635 -5.619812,-26.285706 -9.624786,-37.195374c-3.656372,-10.126465 -7.898315,-18.872009 -12.174957,-26.087158c-4.276642,-7.215271 -8.60379,-12.885559 -12.421753,-17.335388c-8.630646,-7.852783 -13.574005,-13.237823 -13.120972,-14.754791c0.479187,-1.497681 6.384735,1.071381 16.617157,7.068909c4.697083,3.744019 10.064758,9.115143 15.465485,16.381622c5.400726,7.266479 10.80481,16.479553 15.506622,27.489685c4.948914,11.733765 9.084503,25.339722 12.010406,40.280945c2.925903,14.941345 4.660675,31.192017 5.141479,47.910767c0.078308,2.72229 0.10791,5.451904 0.123291,8.134705c0.025665,3.677429 -0.014465,7.280457 -0.082245,10.883667l-13.038727,0l0.000092,0z" fill-rule="evenodd" fill="#00892c"/>
  <path id="path2968" d="m486.631897,599.424622c0.278656,-3.498596 0.589142,-7.002197 0.822601,-10.54657c1.383911,-21.013123 1.823212,-41.411438 1.425842,-60.66095c-0.460358,-22.5354 -2.088135,-43.526001 -4.277466,-62.231812c-2.189331,-18.705811 -4.919922,-35.089172 -7.458099,-48.693298c-2.538208,-13.604095 -4.838806,-24.436066 -6.251678,-32.013519c-1.412872,-7.577362 -1.946259,-11.915649 -1.041931,-12.491272c0.904358,-0.5755 3.151855,2.665344 6.251648,9.424591c3.099823,6.759247 7.075378,17.058716 11.132324,30.517395c4.056946,13.458984 8.156799,30.114471 11.516205,49.441406c3.359375,19.326904 5.939392,41.314636 6.964539,65.074097c0.870178,20.25354 0.677185,41.754456 -0.7677,63.80249c-0.184692,2.817749 -0.382202,5.590454 -0.603271,8.377441l-17.713013,0z" fill-rule="evenodd" fill="#00892c"/>
  <path id="path2970" d="m524.02655,599.424622c3.514709,-14.790344 7.147278,-28.876953 10.488525,-42.076294c3.600403,-14.222778 6.853394,-27.489563 9.501404,-39.663635c1.544434,-7.113342 2.895142,-13.830627 3.989746,-20.084351c1.094666,-6.253784 1.922974,-12.037659 2.550171,-17.335388c0.614014,-5.234253 1.013672,-9.989563 1.275085,-14.137695c0.261414,-4.147949 0.372559,-7.675659 0.452454,-10.603027c0.079895,-2.927399 0.156555,-5.251282 0.287903,-6.844421c0.131348,-1.593292 0.337585,-2.469849 0.69928,-2.580658c0.361633,-0.110962 0.870117,0.559265 1.439575,2.019562c0.569458,1.460449 1.213501,3.735077 1.809814,6.7323c0.596252,2.99707 1.120239,6.725586 1.480713,11.164185c0.360474,4.438477 0.519165,9.548035 0.411316,15.20343c-0.102783,5.715698 -0.447449,12.00824 -1.110535,18.737976c-0.663086,6.729553 -1.622803,13.935364 -2.838074,21.430786c-2.072266,12.812622 -4.846069,26.668152 -8.102966,41.234497c-2.641174,11.812927 -5.627441,24.164612 -8.596497,36.802734l-13.737915,0z" fill-rule="evenodd" fill="#00892c"/>
  <path id="path2972" d="m717.343567,599.424622c-0.076355,-2.6474 -0.178528,-5.263489 -0.246826,-7.944092c-0.007874,-0.264526 0.006592,-0.54248 0,-0.807678c-0.556763,-22.625488 -0.820923,-44.212585 -1.135193,-63.955322c-0.31427,-19.742737 -0.712158,-37.636414 -1.283264,-52.645264c-0.571167,-15.008789 -1.309326,-27.142517 -2.22113,-35.545593c-0.911865,-8.403198 -1.970337,-13.060303 -3.060181,-13.060303c-1.089783,0 -2.131714,4.628967 -3.109436,12.99292c-0.977844,8.364105 -1.905762,20.444702 -2.764099,35.411072c-0.858337,14.966431 -1.638611,32.838989 -2.122375,52.712463c-0.483704,19.873596 -0.659485,41.777954 -0.098694,64.830566c0.006531,0.270142 -0.006592,0.538025 0,0.807861c0.059448,2.428101 0.169922,4.799011 0.246826,7.203369l15.794373,0z" fill-rule="evenodd" fill="#00892c"/>
  <path id="path2974" d="m676.006287,599.424622c-0.332825,-11.325867 -1.041138,-22.19165 -2.13324,-32.144348c-1.322937,-12.05719 -3.183167,-22.78833 -5.248291,-31.544006c-2.065247,-8.755676 -4.302124,-15.547607 -6.16272,-20.043884c-1.860535,-4.49646 -3.30896,-6.709351 -3.995544,-6.327209c-0.686523,0.381775 -0.549805,3.327209 0.067688,8.266846c0.617432,4.939758 1.671753,11.88855 2.708801,20.552063c1.037048,8.663696 2.03418,19.03302 2.742737,30.666504c0.575317,9.445374 0.939148,19.765686 1.18512,30.574036l10.835388,0l0.000061,0z" fill-rule="evenodd" fill="#00892c"/>
  <path id="path2976" d="m760.903625,416.242188c-0.407898,-0.008972 -1.068481,0.689301 -1.933167,2.131775c-0.98822,1.648468 -2.244019,4.270813 -3.619629,7.798157c-1.375549,3.527252 -2.861572,7.968262 -4.277649,13.352234c-1.416077,5.383789 -2.749756,11.723419 -3.784119,18.850098c-0.947021,6.536011 -1.623169,13.733215 -1.974304,21.486877c-0.351074,7.753479 -0.357849,16.065369 0.041016,24.740723c0.594604,12.808594 1.964844,26.425415 4.113159,40.505432c2.148315,14.079834 5.065735,28.610535 8.390869,43.310242c0.677917,2.997131 1.364746,5.927551 2.05658,8.864075c0.270996,1.156067 0.550049,2.274963 0.822632,3.42218l13.737976,0c-0.692078,-2.946106 -1.368835,-5.821594 -2.05658,-8.807983c-0.665283,-2.904968 -1.312195,-5.809631 -1.974365,-8.75177c-3.247437,-14.430298 -6.177917,-28.469238 -8.514221,-41.851746c-2.336243,-13.382446 -4.064148,-26.110779 -5.100342,-38.092957c-0.703796,-8.089966 -1.121582,-15.838867 -1.233948,-23.057739c-0.112183,-7.21875 0.078613,-13.921875 0.452454,-20.08429c0.808655,-13.409424 2.562073,-24.14624 3.825256,-31.585175c0.631592,-3.719513 1.117249,-6.640564 1.357361,-8.695709c0.240112,-2.055267 0.218506,-3.22757 -0.164551,-3.478363c-0.047852,-0.031281 -0.106201,-0.054779 -0.16449,-0.056l0.000061,-0.000061z" fill-rule="evenodd" fill="#00892c"/>
  <path id="path2978" d="m604.508179,417.519196c0.149048,-0.040558 0.34906,0.036591 0.492859,0.336182c0.143799,0.299408 0.211426,0.87616 0.24646,1.277191c0.073853,0.709045 0.080444,1.629303 0,2.688965c-0.158752,2.094635 -0.619446,4.909973 -1.281494,8.268555c-1.3172,6.675659 -3.538757,15.849213 -6.209961,27.023926c-5.273376,22.050964 -12.432922,52.339294 -17.989441,88.063171c-2.698364,17.36554 -4.953735,36.040405 -6.505737,55.526794l-15.919373,0c1.68866,-21.289673 4.532837,-41.572937 7.984314,-60.165283c3.41449,-18.408752 7.426331,-35.181152 11.532959,-50.014526c4.106506,-14.833191 8.29248,-27.713867 12.124329,-38.317474c3.896912,-10.787567 7.376282,-19.147644 10.054382,-25.007233c1.358337,-2.980438 2.473145,-5.245544 3.351379,-6.856781c0.448853,-0.83197 0.82605,-1.426605 1.133606,-1.882324c0.199707,-0.419312 0.436218,-0.478149 0.591431,-0.605042c0.155212,-0.126831 0.245422,-0.29541 0.394287,-0.336121z" fill-rule="evenodd" fill="#00892c"/>
  <path id="path2980" d="m633.434937,453.100891c0.836548,0.384064 0.545654,5.019165 -0.534668,13.071594c-1.080444,8.052429 -2.935974,19.561829 -5.100342,33.773132c-2.164368,14.211365 -4.628723,31.088745 -6.498779,49.930359c-1.562744,15.7453 -2.705872,32.870667 -2.879211,50.828003l-13.038757,0c0.358948,-19.066589 1.948853,-37.079102 4.154297,-53.40863c2.622253,-19.415527 6.056396,-36.517395 9.419128,-50.603577c3.362793,-14.086365 6.646057,-25.120544 9.213501,-32.595032c2.567383,-7.474365 4.428345,-11.380005 5.264832,-10.99585z" fill-rule="evenodd" fill="#00892c"/>
  <path id="path2982" d="m797.401428,456.712402c-0.973267,0 -1.886475,3.729431 -2.7771,10.341309c-0.890625,6.611755 -1.777527,16.132568 -2.644836,27.957458c-0.867249,11.825012 -1.691833,25.925842 -2.336304,41.665894c-0.644409,15.73999 -1.090454,33.128479 -0.837463,51.466064c0.007874,0.609009 0.034058,1.196228 0.043945,1.803528c0.04657,3.164368 0.128784,6.321655 0.220398,9.439514l14.105835,0c-0.074219,-3.259583 -0.164612,-6.536499 -0.220459,-9.860352c-0.009216,-0.591736 -0.035645,-1.149719 -0.043945,-1.743591c-0.25354,-17.87738 -0.239319,-35.032898 -0.308533,-50.684387c-0.069275,-15.651489 -0.208557,-29.799866 -0.617126,-41.725891c-0.408691,-11.925781 -1.054993,-21.582092 -1.85144,-28.257996c-0.796448,-6.676086 -1.759644,-10.40155 -2.732971,-10.40155z" fill-rule="evenodd" fill="#00892c"/>
  <path id="path2984" d="m810.343811,471.558289c-0.86499,0.36554 -0.797546,4.366455 -0.205627,11.276367c0.59198,6.909973 1.713684,16.743958 2.879211,28.892273c1.165466,12.148376 2.343994,26.639404 3.290527,42.80542c0.833862,14.243042 1.462402,29.832703 1.933167,46.171631l13.162109,0c-0.541443,-16.944458 -1.559692,-33.181519 -3.043762,-47.966858c-1.659485,-16.533752 -3.864685,-31.291138 -6.252014,-43.478638c-2.387207,-12.187317 -4.947327,-21.809937 -7.074585,-28.275085c-2.127197,-6.465149 -3.824036,-9.790649 -4.689026,-9.42511z" fill-rule="evenodd" fill="#00892c"/>
  <path d="m443.73764,599.424622c0.034088,-3.531494 0.04657,-7.06488 0,-10.659363c-0.03595,-2.523132 -0.124939,-5.079407 -0.205658,-7.629639c-0.495667,-15.66217 -1.860321,-30.713013 -4.195435,-44.488586c-2.335114,-13.775635 -5.619812,-26.285706 -9.624786,-37.195374c-3.656372,-10.126465 -7.898315,-18.872009 -12.174957,-26.087158c-4.276642,-7.215271 -8.60379,-12.885559 -12.421753,-17.335388c-8.630646,-7.852783 -13.574005,-13.237823 -13.120972,-14.754791c0.479187,-1.497681 6.384735,1.071381 16.617157,7.068909c4.697083,3.744019 10.064758,9.115143 15.465485,16.381622c5.400726,7.266479 10.80481,16.479553 15.506622,27.489685c4.948914,11.733765 9.084503,25.339722 12.010406,40.280945c2.925903,14.941345 4.660675,31.192017 5.141479,47.910767c0.078308,2.72229 0.10791,5.451904 0.123291,8.134705c0.025665,3.677429 -0.014465,7.280457 -0.082245,10.883667l-13.038727,0l0.000092,0z" id="path2986" fill-rule="evenodd" fill="#00892c"/>
  <path d="m486.631897,599.424622c0.278656,-3.498596 0.589142,-7.002197 0.822601,-10.54657c1.383911,-21.013123 1.823212,-41.411438 1.425842,-60.66095c-0.460358,-22.5354 -2.088135,-43.526001 -4.277466,-62.231812c-2.189331,-18.705811 -4.919922,-35.089172 -7.458099,-48.693298c-2.538208,-13.604095 -4.838806,-24.436066 -6.251678,-32.013519c-1.412872,-7.577362 -1.946259,-11.915649 -1.041931,-12.491272c0.904358,-0.5755 3.151855,2.665344 6.251648,9.424591c3.099823,6.759247 7.075378,17.058716 11.132324,30.517395c4.056946,13.458984 8.156799,30.114471 11.516205,49.441406c3.359375,19.326904 5.939392,41.314636 6.964539,65.074097c0.870178,20.25354 0.677185,41.754456 -0.7677,63.80249c-0.184692,2.817749 -0.382202,5.590454 -0.603271,8.377441l-17.713013,0z" id="path2988" fill-rule="evenodd" fill="#00892c"/>
  <path d="m524.02655,599.424622c3.514709,-14.790344 7.147278,-28.876953 10.488525,-42.076294c3.600403,-14.222778 6.853394,-27.489563 9.501404,-39.663635c1.544434,-7.113342 2.895142,-13.830627 3.989746,-20.084351c1.094666,-6.253784 1.922974,-12.037659 2.550171,-17.335388c0.614014,-5.234253 1.013672,-9.989563 1.275085,-14.137695c0.261414,-4.147949 0.372559,-7.675659 0.452454,-10.603027c0.079895,-2.927399 0.156555,-5.251282 0.287903,-6.844421c0.131348,-1.593292 0.337585,-2.469849 0.69928,-2.580658c0.361633,-0.110962 0.870117,0.559265 1.439575,2.019562c0.569458,1.460449 1.213501,3.735077 1.809814,6.7323c0.596252,2.99707 1.120239,6.725586 1.480713,11.164185c0.360474,4.438477 0.519165,9.548035 0.411316,15.20343c-0.102783,5.715698 -0.447449,12.00824 -1.110535,18.737976c-0.663086,6.729553 -1.622803,13.935364 -2.838074,21.430786c-2.072266,12.812622 -4.846069,26.668152 -8.102966,41.234497c-2.641174,11.812927 -5.627441,24.164612 -8.596497,36.802734l-13.737915,0z" id="path2990" fill-rule="evenodd" fill="#00892c"/>
  <path d="m717.343567,599.424622c-0.076355,-2.6474 -0.178528,-5.263489 -0.246826,-7.944092c-0.007874,-0.264526 0.006592,-0.54248 0,-0.807678c-0.556763,-22.625488 -0.820923,-44.212585 -1.135193,-63.955322c-0.31427,-19.742737 -0.712158,-37.636414 -1.283264,-52.645264c-0.571167,-15.008789 -1.309326,-27.142517 -2.22113,-35.545593c-0.911865,-8.403198 -1.970337,-13.060303 -3.060181,-13.060303c-1.089783,0 -2.131714,4.628967 -3.109436,12.99292c-0.977844,8.364105 -1.905762,20.444702 -2.764099,35.411072c-0.858337,14.966431 -1.638611,32.838989 -2.122375,52.712463c-0.483704,19.873596 -0.659485,41.777954 -0.098694,64.830566c0.006531,0.270142 -0.006592,0.538025 0,0.807861c0.059448,2.428101 0.169922,4.799011 0.246826,7.203369l15.794373,0z" id="path2992" fill-rule="evenodd" fill="#00892c"/>
  <path d="m676.006287,599.424622c-0.332825,-11.325867 -1.041138,-22.19165 -2.13324,-32.144348c-1.322937,-12.05719 -3.183167,-22.78833 -5.248291,-31.544006c-2.065247,-8.755676 -4.302124,-15.547607 -6.16272,-20.043884c-1.860535,-4.49646 -3.30896,-6.709351 -3.995544,-6.327209c-0.686523,0.381775 -0.549805,3.327209 0.067688,8.266846c0.617432,4.939758 1.671753,11.88855 2.708801,20.552063c1.037048,8.663696 2.03418,19.03302 2.742737,30.666504c0.575317,9.445374 0.939148,19.765686 1.18512,30.574036l10.835388,0l0.000061,0z" id="path2994" fill-rule="evenodd" fill="#00892c"/>
  <path d="m760.903625,416.242188c-0.407898,-0.008972 -1.068481,0.689301 -1.933167,2.131775c-0.98822,1.648468 -2.244019,4.270813 -3.619629,7.798157c-1.375549,3.527252 -2.861572,7.968262 -4.277649,13.352234c-1.416077,5.383789 -2.749756,11.723419 -3.784119,18.850098c-0.947021,6.536011 -1.623169,13.733215 -1.974304,21.486877c-0.351074,7.753479 -0.357849,16.065369 0.041016,24.740723c0.594604,12.808594 1.964844,26.425415 4.113159,40.505432c2.148315,14.079834 5.065735,28.610535 8.390869,43.310242c0.677917,2.997131 1.364746,5.927551 2.05658,8.864075c0.270996,1.156067 0.550049,2.274963 0.822632,3.42218l13.737976,0c-0.692078,-2.946106 -1.368835,-5.821594 -2.05658,-8.807983c-0.665283,-2.904968 -1.312195,-5.809631 -1.974365,-8.75177c-3.247437,-14.430298 -6.177917,-28.469238 -8.514221,-41.851746c-2.336243,-13.382446 -4.064148,-26.110779 -5.100342,-38.092957c-0.703796,-8.089966 -1.121582,-15.838867 -1.233948,-23.057739c-0.112183,-7.21875 0.078613,-13.921875 0.452454,-20.08429c0.808655,-13.409424 2.562073,-24.14624 3.825256,-31.585175c0.631592,-3.719513 1.117249,-6.640564 1.357361,-8.695709c0.240112,-2.055267 0.218506,-3.22757 -0.164551,-3.478363c-0.047852,-0.031281 -0.106201,-0.054779 -0.16449,-0.056l0.000061,-0.000061z" id="path2996" fill-rule="evenodd" fill="#00892c"/>
  <path d="m604.508179,417.519196c0.149048,-0.040558 0.34906,0.036591 0.492859,0.336182c0.143799,0.299408 0.211426,0.87616 0.24646,1.277191c0.073853,0.709045 0.080444,1.629303 0,2.688965c-0.158752,2.094635 -0.619446,4.909973 -1.281494,8.268555c-1.3172,6.675659 -3.538757,15.849213 -6.209961,27.023926c-5.273376,22.050964 -12.432922,52.339294 -17.989441,88.063171c-2.698364,17.36554 -4.953735,36.040405 -6.505737,55.526794l-15.919373,0c1.68866,-21.289673 4.532837,-41.572937 7.984314,-60.165283c3.41449,-18.408752 7.426331,-35.181152 11.532959,-50.014526c4.106506,-14.833191 8.29248,-27.713867 12.124329,-38.317474c3.896912,-10.787567 7.376282,-19.147644 10.054382,-25.007233c1.358337,-2.980438 2.473145,-5.245544 3.351379,-6.856781c0.448853,-0.83197 0.82605,-1.426605 1.133606,-1.882324c0.199707,-0.419312 0.436218,-0.478149 0.591431,-0.605042c0.155212,-0.126831 0.245422,-0.29541 0.394287,-0.336121z" id="path2998" fill-rule="evenodd" fill="#00892c"/>
  <path d="m633.434937,453.100891c0.836548,0.384064 0.545654,5.019165 -0.534668,13.071594c-1.080444,8.052429 -2.935974,19.561829 -5.100342,33.773132c-2.164368,14.211365 -4.628723,31.088745 -6.498779,49.930359c-1.562744,15.7453 -2.705872,32.870667 -2.879211,50.828003l-13.038757,0c0.358948,-19.066589 1.948853,-37.079102 4.154297,-53.40863c2.622253,-19.415527 6.056396,-36.517395 9.419128,-50.603577c3.362793,-14.086365 6.646057,-25.120544 9.213501,-32.595032c2.567383,-7.474365 4.428345,-11.380005 5.264832,-10.99585z" id="path3000" fill-rule="evenodd" fill="#00892c"/>
  <path d="m797.401428,456.712402c-0.973267,0 -1.886475,3.729431 -2.7771,10.341309c-0.890625,6.611755 -1.777527,16.132568 -2.644836,27.957458c-0.867249,11.825012 -1.691833,25.925842 -2.336304,41.665894c-0.644409,15.73999 -1.090454,33.128479 -0.837463,51.466064c0.007874,0.609009 0.034058,1.196228 0.043945,1.803528c0.04657,3.164368 0.128784,6.321655 0.220398,9.439514l14.105835,0c-0.074219,-3.259583 -0.164612,-6.536499 -0.220459,-9.860352c-0.009216,-0.591736 -0.035645,-1.149719 -0.043945,-1.743591c-0.25354,-17.87738 -0.239319,-35.032898 -0.308533,-50.684387c-0.069275,-15.651489 -0.208557,-29.799866 -0.617126,-41.725891c-0.408691,-11.925781 -1.054993,-21.582092 -1.85144,-28.257996c-0.796448,-6.676086 -1.759644,-10.40155 -2.732971,-10.40155z" id="path3002" fill-rule="evenodd" fill="#00892c"/>
  <path d="m810.343811,471.558289c-0.86499,0.36554 -0.797546,4.366455 -0.205627,11.276367c0.59198,6.909973 1.713684,16.743958 2.879211,28.892273c1.165466,12.148376 2.343994,26.639404 3.290527,42.80542c0.833862,14.243042 1.462402,29.832703 1.933167,46.171631l13.162109,0c-0.541443,-16.944458 -1.559692,-33.181519 -3.043762,-47.966858c-1.659485,-16.533752 -3.864685,-31.291138 -6.252014,-43.478638c-2.387207,-12.187317 -4.947327,-21.809937 -7.074585,-28.275085c-2.127197,-6.465149 -3.824036,-9.790649 -4.689026,-9.42511z" id="path3004" fill-rule="evenodd" fill="#00892c"/>
  <path id="path3006" d="m454.34668,581.437683c0.035034,-3.626404 0.047943,-7.255371 0,-10.946655c-0.036835,-2.591125 -0.128326,-5.216309 -0.211182,-7.835327c-0.509003,-16.084412 -1.910492,-31.540955 -4.308533,-45.687866c-2.398071,-14.146912 -5.771301,-26.994385 -9.884247,-38.197937c-3.754944,-10.399658 -8.111237,-19.380798 -12.503174,-26.790588c-4.391907,-7.409576 -8.835663,-13.232941 -12.756592,-17.802643c-8.863281,-8.064484 -13.93988,-13.594482 -13.47464,-15.152435c0.492096,-1.538025 6.556824,1.100189 17.065063,7.259338c4.82373,3.845032 10.33609,9.360901 15.882385,16.823395c5.546356,7.462219 11.0961,16.923615 15.924652,28.230682c5.082336,12.05011 9.329407,26.022644 12.334167,41.366638c3.004822,15.344177 4.786285,32.032898 5.28009,49.202332c0.080414,2.795776 0.110809,5.598816 0.126587,8.353943c0.026367,3.776733 -0.014862,7.47699 -0.084473,11.177124l-13.390228,0l0.000122,0z" fill-rule="evenodd" fill="#00892c"/>
  <path id="path3008" d="m494.193573,581.437683c0.345886,-4.09137 0.731323,-8.188904 1.021118,-12.334045c1.717957,-24.574829 2.263306,-48.430725 1.769958,-70.942871c-0.571442,-26.355103 -2.592072,-50.903748 -5.309845,-72.78009c-2.717804,-21.876221 -6.107452,-41.036713 -9.25827,-56.946838c-3.150848,-15.909973 -6.006714,-28.57782 -7.76059,-37.439575c-1.753876,-8.861908 -2.416077,-13.935364 -1.293427,-14.608521c1.122589,-0.673248 3.912598,3.116974 7.760559,11.021942c3.848022,7.904938 8.783142,19.950104 13.819336,35.690277c5.036133,15.739868 10.12558,35.218628 14.295807,57.821472c4.170227,22.602814 7.372986,48.317383 8.645569,76.104004c1.080261,23.686584 0.840698,48.831665 -0.953003,74.617065c-0.229248,3.295227 -0.474426,6.537842 -0.74884,9.79718l-21.988373,0z" fill-rule="evenodd" fill="#00892c"/>
  <path id="path3010" d="m536.799927,581.437683c3.609497,-15.189087 7.340027,-29.655457 10.771301,-43.210388c3.69751,-14.606384 7.038147,-28.230774 9.757507,-40.732971c1.586121,-7.305054 2.973267,-14.203308 4.097351,-20.625671c1.124146,-6.422546 1.974731,-12.362244 2.618896,-17.802673c0.630554,-5.375427 1.041077,-10.259003 1.309448,-14.518738c0.268433,-4.259827 0.382629,-7.882874 0.464661,-10.889069c0.08197,-3.006226 0.160767,-5.392792 0.295654,-7.02887c0.134888,-1.636139 0.34668,-2.536316 0.71814,-2.650269c0.371399,-0.113983 0.893616,0.57428 1.478394,2.074036c0.584778,1.499878 1.246216,3.835876 1.858582,6.913666c0.612366,3.078094 1.150452,6.907043 1.52063,11.46524c0.370178,4.558167 0.533142,9.80545 0.422424,15.613373c-0.105591,5.869751 -0.459534,12.33197 -1.140503,19.24292c-0.680969,6.911072 -1.666504,14.311218 -2.914551,22.008606c-2.128174,13.157898 -4.976746,27.387024 -8.321411,42.346191c-2.712341,12.131042 -5.779175,24.815857 -8.828186,37.794617l-14.108337,0z" fill-rule="evenodd" fill="#00892c"/>
  <path id="path3012" d="m703.02002,581.437683c-0.078369,-2.71875 -0.183289,-5.405273 -0.253418,-8.15802c-0.007874,-0.271973 0.006592,-0.557434 0,-0.829529c-0.571838,-23.235657 -0.843079,-45.404419 -1.165833,-65.679382c-0.322815,-20.274902 -0.731384,-38.651062 -1.317932,-54.064392c-0.586487,-15.413513 -1.344482,-27.874207 -2.280945,-36.503784c-0.936401,-8.629822 -2.023499,-13.412537 -3.142639,-13.412537c-1.119202,0 -2.189209,4.753815 -3.193298,13.343262c-1.004211,8.589478 -1.957153,20.995667 -2.838562,36.36554c-0.88147,15.369873 -1.6828,33.724182 -2.179565,54.133667c-0.496826,20.409302 -0.677307,42.904053 -0.101379,66.578003c0.006592,0.277344 -0.006592,0.552551 0,0.829773c0.061035,2.493408 0.174561,4.928223 0.253418,7.3974l16.220154,0z" fill-rule="evenodd" fill="#00892c"/>
  <path id="path3014" d="m660.568481,581.437683c-0.341797,-11.630981 -1.069275,-22.789978 -2.190735,-33.010681c-1.358643,-12.382263 -3.269104,-23.40271 -5.389954,-32.394348c-2.120728,-8.991699 -4.41803,-15.966675 -6.328674,-20.58429c-1.910706,-4.617737 -3.398315,-6.890137 -4.103333,-6.497925c-0.705017,0.392151 -0.564575,3.416931 0.069519,8.489929c0.634155,5.072815 1.716919,12.208801 2.78186,21.105957c1.065063,8.897217 2.088989,19.546021 2.816711,31.493164c0.590759,9.700012 0.964417,20.298584 1.217041,31.398193l11.127502,0l0.000061,0z" fill-rule="evenodd" fill="#00892c"/>
  <path id="path3016" d="m780.0625,393.317078c-0.418884,-0.008942 -1.09729,0.70813 -1.985291,2.189301c-1.014832,1.692871 -2.304504,4.386017 -3.717102,8.008392c-1.412659,3.622375 -2.938782,8.183044 -4.393066,13.712036c-1.454224,5.529175 -2.823792,12.03952 -3.886047,19.358215c-0.972534,6.71228 -1.666992,14.103699 -2.027588,22.066101c-0.360535,7.962646 -0.367432,16.498596 0.042114,25.407837c0.610596,13.15387 2.017822,27.137634 4.22406,41.597229c2.206238,14.459473 5.202209,29.381897 8.617004,44.477844c0.696289,3.077942 1.40155,6.087219 2.112,9.103027c0.27832,1.187134 0.56488,2.336182 0.844849,3.514465l14.108276,0c-0.710815,-3.025513 -1.405762,-5.978577 -2.112,-9.045349c-0.683289,-2.983337 -1.347534,-5.966309 -2.027588,-8.987793c-3.334961,-14.819336 -6.344482,-29.236755 -8.743652,-42.980042c-2.399292,-13.743225 -4.173767,-26.814636 -5.237854,-39.11969c-0.7229,-8.308167 -1.151978,-16.265991 -1.267212,-23.679382c-0.115295,-7.41333 0.080627,-14.297241 0.464661,-20.625793c0.830322,-13.770752 2.631104,-24.797058 3.928345,-32.436523c0.64856,-3.819672 1.147339,-6.819458 1.393921,-8.930176c0.246521,-2.110626 0.224365,-3.314545 -0.168945,-3.572052c-0.049255,-0.032043 -0.109131,-0.056244 -0.168945,-0.057373l0.000061,-0.000275z" fill-rule="evenodd" fill="#00892c"/>
  <path id="path3018" d="m711.729065,394.62851c-0.153015,-0.041565 -0.358398,0.037537 -0.506104,0.345245c-0.147705,0.307556 -0.217102,0.89975 -0.253113,1.311646c-0.075745,0.728241 -0.08252,1.673279 0,2.761597c0.163025,2.151184 0.636169,5.042114 1.315979,8.491272c1.352783,6.855682 3.634216,16.27652 6.377502,27.752502c5.415527,22.645447 12.767944,53.750122 18.474304,90.437134c2.771118,17.833618 5.08728,37.011841 6.681091,57.02356l16.348572,0c-1.734253,-21.863647 -4.655151,-42.693787 -8.199585,-61.78717c-3.506592,-18.90509 -7.626526,-36.129456 -11.843811,-51.36261c-4.217285,-15.233276 -8.516113,-28.460999 -12.451233,-39.350616c-4.001892,-11.078461 -7.575134,-19.663849 -10.325317,-25.681305c-1.39502,-3.06073 -2.539917,-5.386993 -3.441833,-7.041626c-0.460938,-0.854279 -0.848267,-1.465057 -1.164124,-1.933044c-0.205078,-0.430542 -0.447998,-0.490967 -0.607422,-0.621338c-0.159363,-0.13031 -0.252014,-0.303314 -0.404907,-0.345245z" fill-rule="evenodd" fill="#00892c"/>
  <path id="path3020" d="m616.849548,431.169525c0.85907,0.39447 0.560364,5.154388 -0.549133,13.423889c-1.109558,8.269623 -3.015015,20.089264 -5.237854,34.683685c-2.222778,14.59436 -4.753479,31.926636 -6.674011,51.276184c-1.604858,16.169739 -2.778687,33.756775 -2.956787,52.198242l-13.390198,0c0.368652,-19.580688 2.001404,-38.078613 4.266296,-54.848389c2.692932,-19.938904 6.219727,-37.501831 9.673035,-51.967651c3.453369,-14.466125 6.825256,-25.797821 9.461853,-33.473755c2.636597,-7.67572 4.547668,-11.686798 5.406799,-11.292206z" fill-rule="evenodd" fill="#00892c"/>
  <path id="path3022" d="m817.544189,434.878326c-0.999573,0 -1.937317,3.83017 -2.851929,10.620056c-0.914673,6.789978 -1.825439,16.567474 -2.716125,28.711334c-0.890747,12.143738 -1.737488,26.624512 -2.399292,42.78894c-0.661804,16.164429 -1.119873,34.021606 -0.860046,52.853394c0.007874,0.625427 0.034912,1.228455 0.045166,1.852295c0.047852,3.249634 0.132141,6.491943 0.226257,9.693848l14.486084,0c-0.076172,-3.347595 -0.169067,-6.712524 -0.226318,-10.12616c-0.009277,-0.607605 -0.036621,-1.180542 -0.045166,-1.790527c-0.260376,-18.359375 -0.24585,-35.977295 -0.316895,-52.050781c-0.071106,-16.073181 -0.214111,-30.603271 -0.633789,-42.850647c-0.419617,-12.247192 -1.083313,-22.163971 -1.901306,-29.019897c-0.817932,-6.855927 -1.807129,-10.681854 -2.806641,-10.681854z" fill-rule="evenodd" fill="#00892c"/>
  <path id="path3024" d="m830.835449,450.12439c-0.888245,0.375397 -0.819092,4.484253 -0.211182,11.580444c0.60791,7.09613 1.759888,17.195251 2.956787,29.671082c1.19696,12.475769 2.407288,27.357544 3.379272,43.959351c0.856323,14.626953 1.501831,30.636841 1.985291,47.41626l13.516968,0c-0.556091,-17.401245 -1.601807,-34.075806 -3.125854,-49.26001c-1.704224,-16.979187 -3.968872,-32.134644 -6.420532,-44.650696c-2.451599,-12.515869 -5.08075,-22.397827 -7.265381,-29.037231c-2.184509,-6.639343 -3.927063,-10.054626 -4.815369,-9.679199z" fill-rule="evenodd" fill="#00892c"/>
  <path d="m480.784119,587.004822c0.030151,-3.125977 0.041321,-6.253967 0,-9.435852c-0.031738,-2.233643 -0.110535,-4.49646 -0.182037,-6.753967c-0.438751,-13.86438 -1.64679,-27.187561 -3.713867,-39.381958c-2.067047,-12.194275 -4.974701,-23.268555 -8.52002,-32.925842c-3.236664,-8.964294 -6.991699,-16.705811 -10.777435,-23.092834c-3.785767,-6.386902 -7.616241,-11.406433 -10.995941,-15.345581c-7.639984,-6.951263 -12.01593,-11.718201 -11.614899,-13.060974c0.424225,-1.325806 5.651855,0.948334 14.709778,6.257324c4.157898,3.31427 8.909485,8.06897 13.690277,14.501465c4.780792,6.432312 9.564575,14.587891 13.726715,24.33429c4.380829,10.386902 8.041748,22.430847 10.631805,35.657166c2.590088,13.226379 4.125641,27.611755 4.5513,42.411255c0.069366,2.409973 0.095551,4.826172 0.1091,7.20105c0.022644,3.255493 -0.013153,6.444763 -0.072784,9.63446l-11.542084,0l0.000092,0z" id="path3026" fill-rule="evenodd" fill="#00892c"/>
  <path d="m520.071045,587.004822c0.246643,-3.096924 0.521545,-6.198486 0.728149,-9.33606c1.225037,-18.600952 1.613953,-36.658081 1.262146,-53.697937c-0.407532,-19.948669 -1.848389,-38.529907 -3.786438,-55.088562c-1.938049,-16.558563 -4.355164,-31.061523 -6.602051,-43.104065c-2.246826,-12.042755 -4.283386,-21.631195 -5.534058,-28.338776c-1.250671,-6.707764 -1.7229,-10.547974 -0.922363,-11.057556c0.800537,-0.509521 2.7901,2.359283 5.534058,8.342743c2.744019,5.983459 6.263245,15.100616 9.854553,27.014618c3.591248,11.913971 7.22052,26.657745 10.194275,43.766205c2.973816,17.108582 5.257629,36.572205 6.165161,57.604736c0.770264,17.928528 0.599426,36.961426 -0.679626,56.478882c-0.163452,2.494324 -0.338318,4.948669 -0.533997,7.415771l-15.67981,0z" id="path3028" fill-rule="evenodd" fill="#00892c"/>
  <path d="m551.857117,587.004822c3.111267,-13.092712 6.326904,-25.562439 9.284607,-37.246521c3.187195,-12.590393 6.066772,-24.33429 8.410767,-35.110962c1.367188,-6.296875 2.562927,-12.243103 3.53186,-17.778931c0.968933,-5.53595 1.702209,-10.655945 2.257446,-15.34552c0.543518,-4.633423 0.897339,-8.843018 1.128723,-12.514832c0.231384,-3.671936 0.329773,-6.7948 0.400513,-9.386169c0.070679,-2.59137 0.13855,-4.648407 0.254822,-6.058807c0.116272,-1.410248 0.298889,-2.186127 0.619019,-2.284485c0.320129,-0.098145 0.770264,0.495117 1.274353,1.788025c0.504089,1.292664 1.074158,3.306183 1.602051,5.959259c0.527832,2.653259 0.991699,5.953857 1.310791,9.882813c0.319031,3.929016 0.459534,8.452026 0.364075,13.458313c-0.090942,5.059692 -0.396118,10.630005 -0.983093,16.587219c-0.586975,5.957031 -1.436523,12.335876 -2.512329,18.970886c-1.834351,11.341675 -4.289795,23.606995 -7.172791,36.501404c-2.338013,10.456787 -4.981567,21.390686 -7.609802,32.578308l-12.161011,0z" id="path3030" fill-rule="evenodd" fill="#00892c"/>
  <path d="m696.113281,587.004822c-0.067627,-2.343445 -0.15802,-4.659424 -0.218384,-7.032104c-0.006592,-0.234436 0.005188,-0.480469 0,-0.715027c-0.492981,-20.028748 -0.726746,-39.137695 -1.004944,-56.61438c-0.278259,-17.476318 -0.630493,-33.316345 -1.135986,-46.602356c-0.505554,-13.286011 -1.158997,-24.026947 -1.966125,-31.465607c-0.807251,-7.438538 -1.744263,-11.561066 -2.708923,-11.561066c-0.964722,0 -1.887085,4.097534 -2.752625,11.501434c-0.86554,7.404114 -1.686951,18.097992 -2.446777,31.346466c-0.759766,13.248474 -1.4505,29.069641 -1.878784,46.661987c-0.428162,17.592468 -0.583801,36.982605 -0.087402,57.388916c0.00531,0.239075 -0.005188,0.476379 0,0.71521c0.052734,2.149414 0.150452,4.248047 0.218506,6.376526l13.981445,0z" id="path3032" fill-rule="evenodd" fill="#00892c"/>
  <path d="m659.520996,587.004822c-0.294678,-10.025757 -0.921692,-19.644348 -1.888367,-28.454651c-1.171143,-10.673279 -2.817932,-20.172546 -4.645996,-27.92334c-1.828064,-7.75061 -3.808289,-13.762817 -5.455261,-17.743103c-1.646973,-3.980347 -2.929199,-5.939026 -3.536926,-5.601135c-0.607727,0.338257 -0.486633,2.945435 0.059875,7.318237c0.546692,4.37262 1.479919,10.523865 2.397888,18.192871c0.918091,7.66925 1.80072,16.848389 2.427917,27.146484c0.509338,8.361084 0.831299,17.496948 1.049072,27.064636l9.591736,0l0.000061,0z" id="path3034" fill-rule="evenodd" fill="#00892c"/>
  <path d="m761.544373,424.848724c-0.361084,-0.007111 -0.945862,0.610443 -1.711304,1.887268c-0.874756,1.459137 -1.98645,3.78064 -3.204102,6.903076c-1.217651,3.122375 -2.533081,7.053436 -3.786682,11.819519c-1.25354,4.765839 -2.434082,10.377777 -3.349731,16.686371c-0.838257,5.785767 -1.436829,12.157043 -1.747681,19.020508c-0.310791,6.863525 -0.316772,14.221375 0.036316,21.90094c0.526306,11.338257 1.739319,23.391907 3.641052,35.855896c1.901733,12.463806 4.484131,25.326721 7.427673,38.338989c0.600098,2.653076 1.208069,5.247131 1.820496,7.846558c0.239868,1.023376 0.486877,2.013916 0.72821,3.029419l12.161072,0c-0.612732,-2.607971 -1.211792,-5.153381 -1.820557,-7.796997c-0.588928,-2.571411 -1.16156,-5.142761 -1.747681,-7.747192c-2.874695,-12.773804 -5.468811,-25.201355 -7.536865,-37.047791c-2.068176,-11.846313 -3.597656,-23.113586 -4.514954,-33.72052c-0.623047,-7.161316 -0.99292,-14.020874 -1.092285,-20.411011c-0.099365,-6.390076 0.069458,-12.323975 0.400513,-17.778931c0.71582,-11.870239 2.267944,-21.374573 3.386169,-27.959686c0.559143,-3.292572 0.989014,-5.878357 1.201538,-7.697601c0.212524,-1.819336 0.193359,-2.857208 -0.14563,-3.079163c-0.042419,-0.027588 -0.094177,-0.04834 -0.14563,-0.049469l0.000061,-0.000183z" id="path3036" fill-rule="evenodd" fill="#00892c"/>
  <path d="m702.642395,425.979309c-0.131897,-0.036041 -0.30896,0.032288 -0.43634,0.297668c-0.127197,0.264923 -0.187134,0.775513 -0.218079,1.130493c-0.065308,0.627594 -0.071106,1.4422 0,2.38031c0.140442,1.85434 0.548279,4.346344 1.134338,7.319427c1.165955,5.909393 3.132568,14.029816 5.497192,23.921906c4.668091,19.519836 11.005798,46.331543 15.9245,77.954895c2.388611,15.372375 4.385071,31.903503 5.758972,49.153259l14.092102,0c-1.494812,-18.846008 -4.012573,-36.800964 -7.06781,-53.259277c-3.022644,-16.295715 -6.573914,-31.142883 -10.209167,-44.273621c-3.635193,-13.130554 -7.340698,-24.532593 -10.732727,-33.919373c-3.449585,-9.549164 -6.529602,-16.949738 -8.900208,-22.136627c-1.202454,-2.638458 -2.189331,-4.643494 -2.966797,-6.069824c-0.397278,-0.736267 -0.73114,-1.262787 -1.003418,-1.666168c-0.176758,-0.371063 -0.386169,-0.423248 -0.523621,-0.5354c-0.137329,-0.112518 -0.217224,-0.261627 -0.348938,-0.297668z" id="path3038" fill-rule="evenodd" fill="#00892c"/>
  <path d="m621.83606,457.476685c0.74054,0.340027 0.483093,4.443054 -0.473328,11.571289c-0.95636,7.127991 -2.598816,17.316467 -4.514893,29.896362c-1.915894,12.580139 -4.097412,27.520264 -5.752808,44.199158c-1.383362,13.937866 -2.395203,29.097656 -2.548706,44.993774l-11.542053,0c0.317688,-16.878113 1.725098,-32.822998 3.677368,-47.278137c2.321289,-17.18689 5.361267,-32.325684 8.338013,-44.795105c2.976746,-12.469299 5.88324,-22.237183 8.155945,-28.85376c2.272705,-6.616272 3.919983,-10.073547 4.660461,-9.733582z" id="path3040" fill-rule="evenodd" fill="#00892c"/>
  <path d="m793.852783,460.673645c-0.861633,0 -1.669922,3.301453 -2.458374,9.154297c-0.788391,5.852722 -1.573425,14.280884 -2.341187,24.748535c-0.767761,10.467651 -1.49762,22.949951 -2.068054,36.883301c-0.570557,13.933167 -0.965393,29.325806 -0.741455,45.55835c0.006531,0.539185 0.030151,1.058899 0.039001,1.596558c0.04126,2.80127 0.113892,5.59613 0.195068,8.356018l12.486633,0c-0.065613,-2.885498 -0.14563,-5.786133 -0.195068,-8.728455c-0.007935,-0.523865 -0.031616,-1.017822 -0.03894,-1.543579c-0.224487,-15.825317 -0.211853,-31.011475 -0.273254,-44.866455c-0.061279,-13.85498 -0.184509,-26.379517 -0.546265,-36.936523c-0.361633,-10.556885 -0.933777,-19.104797 -1.638855,-25.014404c-0.705078,-5.90979 -1.557678,-9.207642 -2.41925,-9.207642z" id="path3042" fill-rule="evenodd" fill="#00892c"/>
  <path d="m805.309631,473.815552c-0.765686,0.323425 -0.706116,3.865356 -0.182068,9.981934c0.524048,6.116699 1.516968,14.822021 2.548706,25.575989c1.031738,10.753784 2.075012,23.581543 2.912781,37.892029c0.73822,12.608154 1.294617,26.408325 1.711304,40.871765l11.651367,0c-0.479309,-14.999512 -1.380737,-29.372681 -2.694397,-42.460999c-1.468994,-14.635864 -3.421143,-27.699463 -5.534363,-38.487915c-2.113281,-10.788513 -4.379517,-19.306702 -6.262573,-25.029663c-1.883057,-5.722961 -3.385132,-8.666748 -4.150757,-8.34314z" id="path3044" fill-rule="evenodd" fill="#00892c"/>
  <path id="path3046" d="m629.796021,587.004822c0.246643,-3.096924 0.521545,-6.198486 0.728149,-9.33606c1.225037,-18.600952 1.613953,-36.658081 1.262146,-53.697937c-0.407471,-19.948669 -1.84845,-38.529907 -3.786438,-55.088562c-1.93811,-16.558563 -4.355225,-31.061523 -6.602051,-43.104065c-2.246887,-12.042755 -4.283386,-21.631195 -5.533997,-28.338776c-1.250732,-6.707764 -1.722961,-10.547974 -0.922424,-11.057556c0.800537,-0.509521 2.7901,2.359283 5.534058,8.342743c2.744019,5.983459 6.263245,15.100616 9.854553,27.014618c3.591309,11.913971 7.22052,26.657745 10.194275,43.766205c2.973755,17.108582 5.257629,36.572205 6.165161,57.604736c0.770325,17.928528 0.599487,36.961426 -0.679626,56.478882c-0.163513,2.494324 -0.338318,4.948669 -0.533997,7.415771l-15.67981,0z" fill-rule="evenodd" fill="#00892c"/>
  <path id="path3048" d="m676.470154,424.848724c-0.361084,-0.007111 -0.945862,0.610443 -1.711304,1.887268c-0.874756,1.459137 -1.98645,3.78064 -3.204102,6.903076c-1.217529,3.122375 -2.533142,7.053436 -3.786682,11.819519c-1.25354,4.765839 -2.43396,10.377777 -3.34967,16.686371c-0.838318,5.785767 -1.43689,12.157043 -1.747681,19.020508c-0.310852,6.863525 -0.316772,14.221375 0.036316,21.90094c0.526245,11.338257 1.73938,23.391907 3.640991,35.855896c1.901855,12.463806 4.484192,25.326721 7.427673,38.338989c0.600098,2.653076 1.208069,5.247131 1.820496,7.846558c0.239868,1.023376 0.486877,2.013916 0.72821,3.029419l12.161072,0c-0.612732,-2.607971 -1.211792,-5.153381 -1.820557,-7.796997c-0.588928,-2.571411 -1.16156,-5.142761 -1.747681,-7.747192c-2.874695,-12.773804 -5.468811,-25.201355 -7.536865,-37.047791c-2.068176,-11.846313 -3.597656,-23.113586 -4.514954,-33.72052c-0.623047,-7.161316 -0.99292,-14.020874 -1.092285,-20.411011c-0.099365,-6.390076 0.069458,-12.323975 0.400513,-17.778931c0.71582,-11.870239 2.267944,-21.374573 3.386169,-27.959686c0.559082,-3.292572 0.988953,-5.878357 1.201538,-7.697601c0.212524,-1.819336 0.193359,-2.857208 -0.14563,-3.079163c-0.042419,-0.027588 -0.094177,-0.04834 -0.14563,-0.049469l0.000061,-0.000183z" fill-rule="evenodd" fill="#00892c"/>
  <path id="path3050" d="m793.181885,434.955566c0.131897,-0.035919 0.30896,0.032349 0.436279,0.297546c0.127258,0.265137 0.187195,0.775574 0.21814,1.130646c0.065308,0.627625 0.071106,1.442169 0,2.380127c-0.140442,1.854401 -0.548279,4.346558 -1.134338,7.31955c-1.165955,5.909485 -3.132568,14.029968 -5.497192,23.921997c-4.668091,19.519836 -11.005798,46.331482 -15.9245,77.954956c-2.388611,15.372253 -4.385193,31.903381 -5.758972,49.153137l-14.092102,0c1.494812,-18.845947 4.012573,-36.801025 7.06781,-53.259216c3.022644,-16.295776 6.573914,-31.142883 10.209167,-44.273621c3.635193,-13.130737 7.340698,-24.532715 10.732666,-33.919373c3.449646,-9.549316 6.529663,-16.949677 8.900269,-22.13678c1.202454,-2.638245 2.189331,-4.64328 2.966797,-6.069672c0.397278,-0.736481 0.73114,-1.262787 1.003357,-1.666168c0.176819,-0.371277 0.386169,-0.423187 0.52356,-0.535583c0.13739,-0.112488 0.217285,-0.261597 0.34906,-0.297546z" fill-rule="evenodd" fill="#00892c"/>
  <path id="path3052" d="m853.009827,457.476685c0.74054,0.340027 0.483032,4.443054 -0.473328,11.571289c-0.956421,7.127991 -2.598938,17.316467 -4.514954,29.896362c-1.915894,12.580139 -4.097412,27.520264 -5.752747,44.199158c-1.383423,13.937866 -2.395203,29.097656 -2.548767,44.993774l-11.542053,0c0.317749,-16.878113 1.725098,-32.822998 3.677429,-47.278137c2.321289,-17.18689 5.361267,-32.325684 8.338013,-44.795105c2.976685,-12.469299 5.883179,-22.237183 8.155945,-28.85376c2.272644,-6.616272 3.919922,-10.073547 4.660461,-9.733582z" fill-rule="evenodd" fill="#00892c"/>
  <path id="path3054" d="m736.418884,455.287903c-0.861572,0 -1.669922,3.301392 -2.458313,9.154297c-0.788391,5.852783 -1.573425,14.280823 -2.341187,24.748535c-0.767761,10.467651 -1.49762,22.949829 -2.068115,36.88324c-0.570496,13.933167 -0.965393,29.325806 -0.741394,45.558289c0.006592,0.539246 0.030151,1.059082 0.03894,1.596741c0.041321,2.801086 0.113953,5.596069 0.195068,8.355896l12.486694,0c-0.065674,-2.885437 -0.145691,-5.786072 -0.195068,-8.728455c-0.007996,-0.523926 -0.031677,-1.017822 -0.039001,-1.543518c-0.224426,-15.825317 -0.211792,-31.011536 -0.273193,-44.866455c-0.061279,-13.854919 -0.184509,-26.379517 -0.546265,-36.936462c-0.361694,-10.557007 -0.933838,-19.104858 -1.638855,-25.014526c-0.705017,-5.909607 -1.557678,-9.207581 -2.419312,-9.207581z" fill-rule="evenodd" fill="#00892c"/>
  <path id="path3056" d="m650.476196,466.634521c-0.765625,0.323486 -0.706055,3.865479 -0.182007,9.981934c0.523987,6.11676 1.516968,14.822144 2.548706,25.57605c1.031738,10.753723 2.074951,23.581482 2.912781,37.891968c0.73822,12.608154 1.294617,26.408325 1.711304,40.871765l11.651367,0c-0.47937,-14.999451 -1.380798,-29.37262 -2.694458,-42.460938c-1.468994,-14.635803 -3.421021,-27.699524 -5.534302,-38.487976c-2.113281,-10.788513 -4.379578,-19.306519 -6.262634,-25.029602c-1.883057,-5.723022 -3.385071,-8.666809 -4.150757,-8.343201z" fill-rule="evenodd" fill="#00892c"/>
  <g id="g3234" fill="#00892c"/>
  <g id="g3354" fill="#00892c"/>
 </g>
</svg>